<?xml version="1.0" encoding="UTF-8" standalone="no"?>
<svg
   xmlns:dc="http://purl.org/dc/elements/1.1/"
   xmlns:cc="http://creativecommons.org/ns#"
   xmlns:rdf="http://www.w3.org/1999/02/22-rdf-syntax-ns#"
   xmlns:svg="http://www.w3.org/2000/svg"
   xmlns="http://www.w3.org/2000/svg"
   xmlns:xlink="http://www.w3.org/1999/xlink"
   xmlns:sodipodi="http://sodipodi.sourceforge.net/DTD/sodipodi-0.dtd"
   xmlns:inkscape="http://www.inkscape.org/namespaces/inkscape"
   version="1.1"
   preserveAspectRatio="none"
   x="0px"
   y="0px"
   width="100px"
   height="100px"
   viewBox="0 0 100 100"
   id="svg11"
   sodipodi:docname="S_dollar.svg"
   inkscape:version="0.92.1 r">
  <metadata
     id="metadata15">
    <rdf:RDF>
      <cc:Work
         rdf:about="">
        <dc:format>image/svg+xml</dc:format>
        <dc:type
           rdf:resource="http://purl.org/dc/dcmitype/StillImage" />
      </cc:Work>
    </rdf:RDF>
  </metadata>
  <sodipodi:namedview
     pagecolor="#ffffff"
     bordercolor="#666666"
     borderopacity="1"
     objecttolerance="10"
     gridtolerance="10"
     guidetolerance="10"
     inkscape:pageopacity="0"
     inkscape:pageshadow="2"
     inkscape:window-width="640"
     inkscape:window-height="480"
     id="namedview13"
     showgrid="false"
     inkscape:zoom="2.36"
     inkscape:cx="50"
     inkscape:cy="50"
     inkscape:window-x="0"
     inkscape:window-y="36"
     inkscape:window-maximized="0"
     inkscape:current-layer="svg11" />
  <defs
     id="defs5">
    <g
       id="Layer0_0_FILL">
      <path
         fill="#000000"
         stroke="none"
         d=" M 42.35 9.3 Q 42.2 9.2 42.05 9.2 40.8 9.25 40.2 10.2 39.25 11.4 38.7 12.85 36.6 18 37.35 23.6 28.05 25.2 21.8 32.1 17.15 37.05 17.1 43.5 17.05 45.9 18.4 47.75 23.75 55.3 33.15 56.55 30.4 67.5 30.15 78.7 27 77.4 25.9 74.25 25.2 72.4 25.05 70.6 24.85 67.5 23.45 64.9 23.4 64.75 23.3 64.7 23.2 64.6 23.1 64.6 19.85 64.2 17.55 66.5 13.75 70.3 16.15 75.05 17.25 77.4 18.65 79.4 22.95 85.7 30.45 87.95 31 92.45 31.65 97 32.15 100.65 35.75 102.25 38.65 103.6 40.85 101.7 40.95 101.6 41 101.5 41 101.35 41 101.25 L 39.45 88.85 Q 40.2 88.8 40.95 88.75 46.65 88.15 52.05 86.3 57 84.65 60.3 80.9 61.45 79.55 62.1 78.05 65.85 69.9 61.5 61.9 60.65 60.3 59 59.25 51.65 54.65 43.75 51.55 L 47 32.95 Q 49.05 33.25 50.7 34.6 51.2 34.95 51.45 35.6 52.55 38.35 55.1 40.1 58.3 42.25 61.25 40.55 61.3 40.45 61.4 40.35 61.45 40.3 61.45 40.2 L 61.55 36.7 Q 61.55 36.6 61.55 36.55 61.1 34.5 60.25 32.8 56.75 25.2 48.15 23.55 48.25 22.2 48.4 20.9 49.05 13.35 42.35 9.3 M 26.8 43.4 Q 27.7 41.3 28.75 39.25 31.45 34.15 37.25 32.75 L 35.25 48.05 Q 31.9 46.8 28.55 45.7 26.75 45.05 26.8 43.4 M 42.6 58.8 Q 46.95 60.7 50.2 63.9 51.6 65.3 53 66.75 55.25 69.15 53.95 72 53.9 72 53.9 72.05 49.2 79.35 40.05 80.05 L 42.6 58.8 Z"
         id="path2" />
    </g>
  </defs>
  <g
     transform="translate(10.471461,-6.0053846)"
     id="g9">
    <use
       xlink:href="#Layer0_0_FILL"
       id="use7"
       x="0"
       y="0"
       width="100%"
       height="100%" />
  </g>
</svg>
