<?xml version="1.0" encoding="UTF-8" standalone="no"?>
<svg
   xmlns:dc="http://purl.org/dc/elements/1.1/"
   xmlns:cc="http://creativecommons.org/ns#"
   xmlns:rdf="http://www.w3.org/1999/02/22-rdf-syntax-ns#"
   xmlns:svg="http://www.w3.org/2000/svg"
   xmlns="http://www.w3.org/2000/svg"
   xmlns:xlink="http://www.w3.org/1999/xlink"
   xmlns:sodipodi="http://sodipodi.sourceforge.net/DTD/sodipodi-0.dtd"
   xmlns:inkscape="http://www.inkscape.org/namespaces/inkscape"
   version="1.1"
   preserveAspectRatio="none"
   x="0px"
   y="0px"
   width="100px"
   height="100px"
   viewBox="0 0 100 100"
   id="svg13"
   sodipodi:docname="A_play.svg"
   inkscape:version="0.92.1 r">
  <metadata
     id="metadata17">
    <rdf:RDF>
      <cc:Work
         rdf:about="">
        <dc:format>image/svg+xml</dc:format>
        <dc:type
           rdf:resource="http://purl.org/dc/dcmitype/StillImage" />
      </cc:Work>
    </rdf:RDF>
  </metadata>
  <sodipodi:namedview
     pagecolor="#ffffff"
     bordercolor="#666666"
     borderopacity="1"
     objecttolerance="10"
     gridtolerance="10"
     guidetolerance="10"
     inkscape:pageopacity="0"
     inkscape:pageshadow="2"
     inkscape:window-width="640"
     inkscape:window-height="480"
     id="namedview15"
     showgrid="false"
     inkscape:zoom="2.36"
     inkscape:cx="50"
     inkscape:cy="50"
     inkscape:window-x="0"
     inkscape:window-y="36"
     inkscape:window-maximized="0"
     inkscape:current-layer="svg13" />
  <defs
     id="defs5">
    <g
       id="play_0_Layer0_0_FILL">
      <path
         fill="#000000"
         stroke="none"
         d=" M 23.3 -4.95 Q 22.55 -6.45 20.3 -8.7 6.55 -22.05 -9.8 -31.25 -12.75 -33.05 -15 -34 -18.8 -35.45 -21 -34 -23.55 -32.4 -23.55 -26.55 L -23.2 -14.5 Q -23 -6.5 -23.2 -2.65 L -23.65 3.55 Q -24.35 13.9 -23.4 24.95 -23.2 28.35 -22.4 30.5 -21.35 33.4 -18.75 34.45 -15.75 35.6 -11.05 33 -7.7 31.1 -5.6 29.4 -3.7 28.05 -1.35 25.85 L 3.1 22.1 Q 6.05 19.65 11.65 14.7 14.85 12.1 16.7 10.05 18.8 7.95 21.35 4.3 23.55 1.2 23.85 -1.4 24.15 -3.25 23.3 -4.95 Z"
         id="path2" />
    </g>
  </defs>
  <g
     transform="translate(50.009354,49.961167)"
     id="g11">
    <g
       id="g9">
      <use
         xlink:href="#play_0_Layer0_0_FILL"
         id="use7"
         x="0"
         y="0"
         width="100%"
         height="100%" />
    </g>
  </g>
</svg>
