<?xml version="1.0" encoding="UTF-8" standalone="no"?>
<svg
   xmlns:dc="http://purl.org/dc/elements/1.1/"
   xmlns:cc="http://creativecommons.org/ns#"
   xmlns:rdf="http://www.w3.org/1999/02/22-rdf-syntax-ns#"
   xmlns:svg="http://www.w3.org/2000/svg"
   xmlns="http://www.w3.org/2000/svg"
   xmlns:xlink="http://www.w3.org/1999/xlink"
   xmlns:sodipodi="http://sodipodi.sourceforge.net/DTD/sodipodi-0.dtd"
   xmlns:inkscape="http://www.inkscape.org/namespaces/inkscape"
   version="1.1"
   preserveAspectRatio="none"
   x="0px"
   y="0px"
   width="100px"
   height="100px"
   viewBox="0 0 100 100"
   id="svg13"
   sodipodi:docname="B_shop.svg"
   inkscape:version="0.92.1 r">
  <metadata
     id="metadata17">
    <rdf:RDF>
      <cc:Work
         rdf:about="">
        <dc:format>image/svg+xml</dc:format>
        <dc:type
           rdf:resource="http://purl.org/dc/dcmitype/StillImage" />
      </cc:Work>
    </rdf:RDF>
  </metadata>
  <sodipodi:namedview
     pagecolor="#ffffff"
     bordercolor="#666666"
     borderopacity="1"
     objecttolerance="10"
     gridtolerance="10"
     guidetolerance="10"
     inkscape:pageopacity="0"
     inkscape:pageshadow="2"
     inkscape:window-width="640"
     inkscape:window-height="480"
     id="namedview15"
     showgrid="false"
     inkscape:zoom="2.36"
     inkscape:cx="50"
     inkscape:cy="50"
     inkscape:window-x="0"
     inkscape:window-y="36"
     inkscape:window-maximized="0"
     inkscape:current-layer="svg13" />
  <defs
     id="defs5">
    <g
       id="shop_0_Layer0_0_FILL">
      <path
         fill="#000000"
         stroke="none"
         d=" M 17.8 -27.1 L 16.05 -23.75 Q -5.95 -25 -28.1 -24.9 -35.1 -24.9 -42.3 -23.65 -45.05 -22.7 -45.3 -19.95 -46.8 1 -30.25 15.95 -29.6 22.15 -25.8 26.25 -22.8 29.7 -19.15 28.55 -8.25 25.55 -10.3 14.2 L -5.25 14.2 Q -7.2 24.3 1.05 28.65 4.35 30.6 7.45 28.9 17.7 23.15 13.8 13.5 19.05 10.55 19.75 5.05 21.25 -8.5 28.7 -18.8 34.9 -18.7 40.75 -19.4 46.35 -20.45 45.3 -26.95 44.3 -27.65 43.25 -27.75 30.05 -31.9 17.8 -27.1 M 11.6 -15.85 Q 10.55 -3.8 5.75 7.55 L -24.05 7.2 Q -34.05 -2.65 -32.9 -15.85 L -29.6 -16.2 11.6 -15.85 Z"
         id="path2" />
    </g>
  </defs>
  <g
     transform="translate(49.979432,49.99126)"
     id="g11">
    <g
       id="g9">
      <use
         xlink:href="#shop_0_Layer0_0_FILL"
         id="use7"
         x="0"
         y="0"
         width="100%"
         height="100%" />
    </g>
  </g>
</svg>
