<?xml version="1.0" encoding="UTF-8" standalone="no"?>
<svg
   xmlns:dc="http://purl.org/dc/elements/1.1/"
   xmlns:cc="http://creativecommons.org/ns#"
   xmlns:rdf="http://www.w3.org/1999/02/22-rdf-syntax-ns#"
   xmlns:svg="http://www.w3.org/2000/svg"
   xmlns="http://www.w3.org/2000/svg"
   xmlns:xlink="http://www.w3.org/1999/xlink"
   xmlns:sodipodi="http://sodipodi.sourceforge.net/DTD/sodipodi-0.dtd"
   xmlns:inkscape="http://www.inkscape.org/namespaces/inkscape"
   version="1.1"
   preserveAspectRatio="none"
   x="0px"
   y="0px"
   width="100px"
   height="100px"
   viewBox="0 0 100 100"
   id="svg13"
   sodipodi:docname="C_pokal.svg"
   inkscape:version="0.92.1 r">
  <metadata
     id="metadata17">
    <rdf:RDF>
      <cc:Work
         rdf:about="">
        <dc:format>image/svg+xml</dc:format>
        <dc:type
           rdf:resource="http://purl.org/dc/dcmitype/StillImage" />
      </cc:Work>
    </rdf:RDF>
  </metadata>
  <sodipodi:namedview
     pagecolor="#ffffff"
     bordercolor="#666666"
     borderopacity="1"
     objecttolerance="10"
     gridtolerance="10"
     guidetolerance="10"
     inkscape:pageopacity="0"
     inkscape:pageshadow="2"
     inkscape:window-width="640"
     inkscape:window-height="480"
     id="namedview15"
     showgrid="false"
     inkscape:zoom="2.36"
     inkscape:cx="50"
     inkscape:cy="50"
     inkscape:window-x="0"
     inkscape:window-y="36"
     inkscape:window-maximized="0"
     inkscape:current-layer="svg13" />
  <defs
     id="defs5">
    <g
       id="pokal_0_Layer0_0_FILL">
      <path
         fill="#000000"
         stroke="none"
         d=" M 24.1 -37.7 Q 23.25 -38.05 21.45 -38.05 L 2.35 -37.9 Q 1.2 -37.9 0.1 -37.9 L -21.35 -38.05 Q -23.1 -38.05 -24.05 -37.7 -25.6 -36.95 -25.8 -35.5 -25.95 -34.5 -25.4 -33.45 -25.25 -33.15 -24.15 -31.6 -23.4 -30.4 -22.9 -29 -22.85 -28.7 -22.7 -28.55 -22.9 -28.1 -22.9 -27.75 -24.55 -27.95 -26.25 -27.5 -28.2 -26.95 -29.3 -26 -31.05 -24.35 -31.55 -20.85 -32.1 -17.85 -31.75 -14.85 -31.5 -13.05 -31.1 -12.15 -30.95 -11.6 -29.65 -10 -28.8 -8.9 -28 -8.4 -27.05 -7.65 -25.5 -7.45 -23.8 -7.1 -22.45 -7.1 -21.2 -7 -20.25 -7.45 -19.65 -7.6 -18.75 -8.5 -18.45 -6.95 -17.75 -5.55 -16.4 -2.25 -13.1 -0.15 -11.4 0.95 -9.1 1.7 -8.85 2.1 -8.45 2.25 -8.25 2.35 -7.7 2.55 -7.15 2.7 -6.9 2.85 -6.45 3.3 -6 4.7 L -4.55 8.75 Q -4.1 10.4 -3.95 10.7 -3.6 12.3 -3.65 15.4 -3.9 15.5 -4.15 15.55 -4.8 15.9 -6.3 16 -7.85 16.1 -8.45 16.3 -10.65 16.95 -11.8 19.15 -12.9 21.4 -12.2 23.9 -16.1 24.6 -17.95 26.7 -19.4 28.4 -19.65 30.8 -19.9 33.15 -18.7 34.45 -18.1 35 -17.1 35.3 -16.85 35.55 -16.5 35.75 -15.6 36.2 -13.95 36.3 L -11.35 36.5 Q -2.55 39.2 7.6 37.3 11.25 37.25 14.35 36.85 16.35 36.5 17 36.2 18.45 35.6 18.9 34.5 19 34.3 19.05 34.1 19.9 32.85 19.7 30.8 19.5 28.4 18.05 26.7 16.15 24.6 12.3 23.9 12.9 21.4 11.8 19.15 10.75 16.95 8.5 16.3 8 16.1 6.3 16 4.9 15.9 4.15 15.55 4 15.5 3.75 15.4 3.75 12.3 4.05 10.7 4.1 10.4 4.65 8.75 L 5.95 4.7 Q 6.5 3.3 7 2.85 7.3 2.7 7.8 2.55 8.3 2.35 8.5 2.25 8.9 2.1 9.2 1.7 11.45 0.95 13.15 -0.15 16.45 -2.25 17.95 -5.55 18.5 -6.95 18.75 -8.5 19.7 -7.6 20.4 -7.45 21.3 -7 22.55 -7.1 23.85 -7.1 25.55 -7.45 27.15 -7.65 28.05 -8.4 28.85 -8.9 29.8 -10 30.95 -11.6 31.1 -12.15 31.6 -13.05 31.8 -14.85 32.15 -17.85 31.7 -20.85 31.05 -24.35 29.35 -26 28.35 -26.95 26.25 -27.5 24.65 -27.95 22.95 -27.75 22.95 -28.1 22.9 -28.55 22.95 -28.7 22.95 -29 23.55 -30.4 24.25 -31.6 25.3 -33.15 25.45 -33.45 25.95 -34.5 25.85 -35.5 25.65 -36.95 24.1 -37.7 M 26.15 -21.7 Q 26.6 -21.35 26.85 -20.5 27.05 -19.55 27.15 -18.3 27.3 -16.9 27.15 -15.75 26.85 -14.3 26.05 -13.6 25.2 -12.75 23.05 -12.65 22.25 -12.65 21.9 -12.8 21.7 -12.9 21.1 -13.9 21.1 -14.5 21.1 -15.25 21.1 -16.6 20.95 -17.85 21.05 -18.2 21.05 -18.45 21.1 -19.25 21.05 -20 21.45 -20.5 21.7 -21.25 L 22.7 -21.95 Q 23.6 -22.4 25.1 -22.05 25.75 -21.95 26.15 -21.7 M -25 -22.05 Q -23.5 -22.4 -22.7 -21.95 L -21.65 -21.25 Q -21.35 -20.5 -20.85 -20 -20.9 -19.25 -20.85 -18.45 -20.85 -18.2 -20.85 -17.85 -20.95 -16.6 -20.95 -15.25 -20.95 -14.5 -20.9 -13.9 -21.65 -12.9 -21.95 -12.8 -22.25 -12.65 -23 -12.65 -25.05 -12.75 -26 -13.6 -26.7 -14.3 -27.05 -15.75 -27.25 -16.9 -27.05 -18.3 -26.95 -19.55 -26.65 -20.5 -26.4 -21.35 -26.05 -21.7 -25.75 -21.95 -25 -22.05 Z"
         id="path2" />
    </g>
  </defs>
  <g
     transform="translate(49.966493,49.982609)"
     id="g11">
    <g
       id="g9">
      <use
         xlink:href="#pokal_0_Layer0_0_FILL"
         id="use7"
         x="0"
         y="0"
         width="100%"
         height="100%" />
    </g>
  </g>
</svg>
