<?xml version="1.0" encoding="UTF-8" standalone="no"?>
<svg
   xmlns:dc="http://purl.org/dc/elements/1.1/"
   xmlns:cc="http://creativecommons.org/ns#"
   xmlns:rdf="http://www.w3.org/1999/02/22-rdf-syntax-ns#"
   xmlns:svg="http://www.w3.org/2000/svg"
   xmlns="http://www.w3.org/2000/svg"
   xmlns:xlink="http://www.w3.org/1999/xlink"
   xmlns:sodipodi="http://sodipodi.sourceforge.net/DTD/sodipodi-0.dtd"
   xmlns:inkscape="http://www.inkscape.org/namespaces/inkscape"
   version="1.1"
   preserveAspectRatio="none"
   x="0px"
   y="0px"
   width="100px"
   height="100px"
   viewBox="0 0 100 100"
   id="svg13"
   sodipodi:docname="D_down.svg"
   inkscape:version="0.92.1 r">
  <metadata
     id="metadata17">
    <rdf:RDF>
      <cc:Work
         rdf:about="">
        <dc:format>image/svg+xml</dc:format>
        <dc:type
           rdf:resource="http://purl.org/dc/dcmitype/StillImage" />
      </cc:Work>
    </rdf:RDF>
  </metadata>
  <sodipodi:namedview
     pagecolor="#ffffff"
     bordercolor="#666666"
     borderopacity="1"
     objecttolerance="10"
     gridtolerance="10"
     guidetolerance="10"
     inkscape:pageopacity="0"
     inkscape:pageshadow="2"
     inkscape:window-width="640"
     inkscape:window-height="480"
     id="namedview15"
     showgrid="false"
     inkscape:zoom="2.36"
     inkscape:cx="50"
     inkscape:cy="50"
     inkscape:window-x="0"
     inkscape:window-y="36"
     inkscape:window-maximized="0"
     inkscape:current-layer="svg13" />
  <defs
     id="defs5">
    <g
       id="down_0_Layer0_0_FILL">
      <path
         fill="#000000"
         stroke="none"
         d=" M 9.25 -33.8 Q 8.85 -33.95 8.45 -34.05 4.6 -36 -0.7 -35.75 -6.85 -35.45 -12.15 -32.6 -12.75 -32.25 -13.05 -31.9 -13.6 -31.6 -13.95 -31.4 -15.75 -30 -15.85 -28.3 -15.85 -27.2 -15.35 -26.4 -15.35 -25.8 -15.25 -25.2 -15.65 -22.2 -15.85 -19.25 L -15.95 -16.25 Q -15.95 -12.85 -15.45 -8.7 L -15.05 -5 Q -15.15 -5 -15.25 -5 -15.95 -5.1 -17.25 -5.1 L -20.85 -5.2 Q -23.45 -5.2 -24.6 -4.6 -26.5 -3.5 -26.8 -1.1 -26.8 -0.2 -26.7 0.6 -26.7 1.1 -26.6 1.6 -26.3 2.75 -24.8 5.15 -23.15 7.65 -18.15 17.7 -14.25 25.6 -10.5 29.35 -8.5 31.15 -6 33.05 -5.1 34.05 -3.7 34.85 -1.9 35.85 0.05 35.85 1.95 35.85 3.75 34.85 5.15 34.05 6.05 33.05 8.55 31.15 10.55 29.35 14.3 25.6 18.2 17.7 23.15 7.65 24.85 5.15 26.35 2.75 26.65 1.6 26.75 1.1 26.75 0.6 26.85 -0.2 26.85 -1.1 26.55 -3.5 24.65 -4.6 23.45 -5.2 20.9 -5.2 L 17.3 -5.1 Q 16 -5.1 15.3 -5 15.2 -5 15.1 -5 L 15.35 -7.35 15.4 -7.35 15.55 -8.85 Q 16.05 -13 16.05 -16.4 L 15.95 -19.4 Q 15.75 -22.35 15.35 -25.35 15.45 -25.95 15.45 -26.55 15.95 -27.35 15.95 -28.45 15.85 -30.15 14.05 -31.55 13.15 -32.15 10.8 -33.05 10.1 -33.45 9.25 -33.8 Z"
         id="path2" />
    </g>
  </defs>
  <g
     transform="translate(49.975,49.964205)"
     id="g11">
    <g
       id="g9">
      <use
         xlink:href="#down_0_Layer0_0_FILL"
         id="use7"
         x="0"
         y="0"
         width="100%"
         height="100%" />
    </g>
  </g>
</svg>
