<?xml version="1.0" encoding="UTF-8" standalone="no"?>
<svg
   xmlns:dc="http://purl.org/dc/elements/1.1/"
   xmlns:cc="http://creativecommons.org/ns#"
   xmlns:rdf="http://www.w3.org/1999/02/22-rdf-syntax-ns#"
   xmlns:svg="http://www.w3.org/2000/svg"
   xmlns="http://www.w3.org/2000/svg"
   xmlns:xlink="http://www.w3.org/1999/xlink"
   xmlns:sodipodi="http://sodipodi.sourceforge.net/DTD/sodipodi-0.dtd"
   xmlns:inkscape="http://www.inkscape.org/namespaces/inkscape"
   version="1.1"
   preserveAspectRatio="none"
   x="0px"
   y="0px"
   width="100px"
   height="100px"
   viewBox="0 0 100 100"
   id="svg13"
   sodipodi:docname="E_flask.svg"
   inkscape:version="0.92.1 r">
  <metadata
     id="metadata17">
    <rdf:RDF>
      <cc:Work
         rdf:about="">
        <dc:format>image/svg+xml</dc:format>
        <dc:type
           rdf:resource="http://purl.org/dc/dcmitype/StillImage" />
      </cc:Work>
    </rdf:RDF>
  </metadata>
  <sodipodi:namedview
     pagecolor="#ffffff"
     bordercolor="#666666"
     borderopacity="1"
     objecttolerance="10"
     gridtolerance="10"
     guidetolerance="10"
     inkscape:pageopacity="0"
     inkscape:pageshadow="2"
     inkscape:window-width="640"
     inkscape:window-height="480"
     id="namedview15"
     showgrid="false"
     inkscape:zoom="2.36"
     inkscape:cx="50"
     inkscape:cy="50"
     inkscape:window-x="0"
     inkscape:window-y="36"
     inkscape:window-maximized="0"
     inkscape:current-layer="svg13" />
  <defs
     id="defs5">
    <g
       id="flask_0_Layer0_0_FILL">
      <path
         fill="#000000"
         stroke="none"
         d=" M 8.4 -14.5 Q 7.75 -20.95 7.9 -27.55 L 9.95 -28.1 Q 10.25 -28.3 10.45 -28.5 12.95 -31 10.5 -33.6 9.95 -34.15 9.25 -34.15 0.55 -34.1 -8.35 -34.45 -10.4 -34.65 -12.25 -33.85 -13.25 -33.3 -13.55 -32.15 -13.8 -31.35 -13.75 -30.5 -13.65 -27.95 -11.2 -27.5 -11.15 -25.3 -11.15 -23.05 -11.15 -20.25 -10.8 -17.45 -10.3 -14.1 -11.75 -11.35 -16.15 -3.1 -19.5 5.5 -22.55 13.25 -26.55 20.7 -28.4 24.15 -27.8 27.7 -27.1 31.9 -23 33.15 -18.4 34.5 -13.45 34.35 -4.1 33.85 5.25 34.4 13.05 34.95 20.85 33.65 22.55 33.5 24.05 32.75 27.4 31.2 27.9 27.45 28.2 25.25 27.05 23.45 25.15 20.55 23.3 17 21.35 13.2 19.3 9.2 14.5 0.15 10 -9.05 8.7 -11.7 8.4 -14.5 M 0.65 -27.2 Q 1.4 -20.7 0.75 -14.3 0.65 -13.25 1 -12.25 3.55 -5 7.3 1.5 8.35 3.3 8.85 5.35 L -12.05 5.35 Q -8.7 -1.5 -4.8 -8.3 -4.15 -9.45 -4.2 -10.8 -4.5 -16.65 -4.15 -22.35 L -4 -27.2 0.65 -27.2 Z"
         id="path2" />
    </g>
  </defs>
  <g
     transform="translate(49.992435,49.963243)"
     id="g11">
    <g
       id="g9">
      <use
         xlink:href="#flask_0_Layer0_0_FILL"
         id="use7"
         x="0"
         y="0"
         width="100%"
         height="100%" />
    </g>
  </g>
</svg>
