<?xml version="1.0" encoding="UTF-8" standalone="no"?>
<svg
   xmlns:dc="http://purl.org/dc/elements/1.1/"
   xmlns:cc="http://creativecommons.org/ns#"
   xmlns:rdf="http://www.w3.org/1999/02/22-rdf-syntax-ns#"
   xmlns:svg="http://www.w3.org/2000/svg"
   xmlns="http://www.w3.org/2000/svg"
   xmlns:xlink="http://www.w3.org/1999/xlink"
   xmlns:sodipodi="http://sodipodi.sourceforge.net/DTD/sodipodi-0.dtd"
   xmlns:inkscape="http://www.inkscape.org/namespaces/inkscape"
   version="1.1"
   preserveAspectRatio="none"
   x="0px"
   y="0px"
   width="100px"
   height="100px"
   viewBox="0 0 100 100"
   id="svg13"
   sodipodi:docname="F_frage.svg"
   inkscape:version="0.92.1 r">
  <metadata
     id="metadata17">
    <rdf:RDF>
      <cc:Work
         rdf:about="">
        <dc:format>image/svg+xml</dc:format>
        <dc:type
           rdf:resource="http://purl.org/dc/dcmitype/StillImage" />
      </cc:Work>
    </rdf:RDF>
  </metadata>
  <sodipodi:namedview
     pagecolor="#ffffff"
     bordercolor="#666666"
     borderopacity="1"
     objecttolerance="10"
     gridtolerance="10"
     guidetolerance="10"
     inkscape:pageopacity="0"
     inkscape:pageshadow="2"
     inkscape:window-width="640"
     inkscape:window-height="480"
     id="namedview15"
     showgrid="false"
     inkscape:zoom="2.36"
     inkscape:cx="50"
     inkscape:cy="50"
     inkscape:window-x="0"
     inkscape:window-y="36"
     inkscape:window-maximized="0"
     inkscape:current-layer="svg13" />
  <defs
     id="defs5">
    <g
       id="frage_0_Layer0_0_FILL">
      <path
         fill="#000000"
         stroke="none"
         d=" M 8.8 24.4 Q 7.3 22.4 4.75 21.8 1.4 20.6 -2.65 21.2 -5.6 21.9 -6.8 22.85 -8.95 24.5 -9.6 26.75 -10 28.25 -10 30.25 -9.8 33.1 -9 34.5 -7.95 36.4 -4.7 37.55 L -2.2 38.4 Q -0.85 38.75 1.95 38.75 5.25 38.75 6.8 38.05 8.9 37 10.15 34.4 11.2 31.8 10.75 29 10.45 27.7 9.85 26.4 9.3 24.95 8.8 24.4 M 22.6 -26.6 Q 21.25 -30.5 17.5 -33.3 15 -35.3 10.45 -36.6 4.85 -38.25 -0.35 -38.6 -4.25 -38.95 -7 -38.25 -9.7 -37.7 -13.5 -35.3 -21.1 -30.25 -23.3 -22.85 -24.6 -18.5 -24.2 -10.7 -24.2 -7.65 -23.4 -6 -22.25 -3.4 -18.9 -2.6 -15.4 -1.75 -12 -3.3 -8.55 -4.8 -6.75 -8.25 -6.05 -9.4 -4.95 -12 -3.8 -14.25 -2.4 -14.85 -0.55 -15.65 0.8 -14.1 2.35 -12.85 2.15 -10.45 1.95 -8.25 -0.25 -6 -4 -2.25 -5.75 -0.1 -8.75 3.55 -9.45 7.55 -10.3 12.75 -7.3 15.65 -5.95 16.85 -3.75 17.3 -3.55 17.3 0.25 17.65 4.65 17.9 5.95 17.55 7.45 17.1 8.45 15.8 9.6 14.35 9.5 12.75 9 10.6 9.2 9.55 9.5 7.9 12.1 6.6 17.05 4.15 20.1 0.15 23.7 -4.45 24.25 -10.1 24.55 -12.95 23.95 -18.5 23.6 -24.15 22.6 -26.6 Z"
         id="path2" />
    </g>
  </defs>
  <g
     transform="translate(49.972059,49.983333)"
     id="g11">
    <g
       id="g9">
      <use
         xlink:href="#frage_0_Layer0_0_FILL"
         id="use7"
         x="0"
         y="0"
         width="100%"
         height="100%" />
    </g>
  </g>
</svg>
