<?xml version="1.0" encoding="UTF-8" standalone="no"?>
<svg
   xmlns:dc="http://purl.org/dc/elements/1.1/"
   xmlns:cc="http://creativecommons.org/ns#"
   xmlns:rdf="http://www.w3.org/1999/02/22-rdf-syntax-ns#"
   xmlns:svg="http://www.w3.org/2000/svg"
   xmlns="http://www.w3.org/2000/svg"
   xmlns:xlink="http://www.w3.org/1999/xlink"
   xmlns:sodipodi="http://sodipodi.sourceforge.net/DTD/sodipodi-0.dtd"
   xmlns:inkscape="http://www.inkscape.org/namespaces/inkscape"
   version="1.1"
   preserveAspectRatio="none"
   x="0px"
   y="0px"
   width="100px"
   height="100px"
   viewBox="0 0 100 100"
   id="svg13"
   sodipodi:docname="G_kreuz.svg"
   inkscape:version="0.92.1 r">
  <metadata
     id="metadata17">
    <rdf:RDF>
      <cc:Work
         rdf:about="">
        <dc:format>image/svg+xml</dc:format>
        <dc:type
           rdf:resource="http://purl.org/dc/dcmitype/StillImage" />
      </cc:Work>
    </rdf:RDF>
  </metadata>
  <sodipodi:namedview
     pagecolor="#ffffff"
     bordercolor="#666666"
     borderopacity="1"
     objecttolerance="10"
     gridtolerance="10"
     guidetolerance="10"
     inkscape:pageopacity="0"
     inkscape:pageshadow="2"
     inkscape:window-width="640"
     inkscape:window-height="480"
     id="namedview15"
     showgrid="false"
     inkscape:zoom="2.36"
     inkscape:cx="50"
     inkscape:cy="50"
     inkscape:window-x="0"
     inkscape:window-y="36"
     inkscape:window-maximized="0"
     inkscape:current-layer="svg13" />
  <defs
     id="defs5">
    <g
       id="kreuz_0_Layer0_0_FILL">
      <path
         fill="#000000"
         stroke="none"
         d=" M 15.35 -30.9 Q 13.45 -30.8 10.95 -28.5 8.5 -26.15 4.9 -20.3 1.9 -15.85 -0.15 -13.35 L -0.65 -13.95 Q -8 -23.85 -11.8 -27.85 -13.6 -29.65 -15.05 -30.25 -17.7 -31 -21.7 -28.3 L -25.7 -25.3 Q -30.65 -21.2 -31.05 -17.2 -31.2 -15 -30.1 -13 -28.95 -11 -26.95 -9.95 -26.85 -9.95 -26.85 -9.85 -26.65 -9.65 -26.35 -9.35 -23.6 -6.4 -17.5 -1.1 L -15.7 0.55 Q -16.55 1.7 -18.65 3.4 L -25.05 8.55 Q -27.9 10.8 -28.95 12.25 -30.85 14.65 -30.85 17.2 -30.95 20.15 -27.15 24.55 -24.75 27.5 -22.55 28.8 -19.5 30.8 -16.75 30.45 -14.95 30.15 -11.5 27.95 -8.65 25.85 -8.1 25.3 -6.75 24.05 -4.95 21.7 -2.95 19 -2 18.05 L 0.3 15.75 Q 0.5 15.5 0.8 15.3 1.45 16.65 2.4 18.15 L 4.2 20.8 6.4 23.1 Q 10.1 26.65 13.55 29.3 15.65 31 17.25 31 18.2 31 19.75 30.05 23.35 28.05 28.4 22.25 30.3 20.35 30.7 18.9 31.85 15.7 29.05 12.45 28.1 11.3 23.65 7.95 19.15 4.65 15.25 -0.05 L 15.15 -0.15 Q 18.9 -3.75 26.2 -10.4 29.95 -13.75 30.1 -16.25 30.5 -18.7 28.1 -21.45 25.15 -24.05 23.85 -25.35 L 20.1 -29.1 Q 17.75 -31.2 15.35 -30.9 Z"
         id="path2" />
    </g>
  </defs>
  <g
     transform="translate(50.016595,49.96875)"
     id="g11">
    <g
       id="g9">
      <use
         xlink:href="#kreuz_0_Layer0_0_FILL"
         id="use7"
         x="0"
         y="0"
         width="100%"
         height="100%" />
    </g>
  </g>
</svg>
