<?xml version="1.0" encoding="UTF-8" standalone="no"?>
<svg
   xmlns:dc="http://purl.org/dc/elements/1.1/"
   xmlns:cc="http://creativecommons.org/ns#"
   xmlns:rdf="http://www.w3.org/1999/02/22-rdf-syntax-ns#"
   xmlns:svg="http://www.w3.org/2000/svg"
   xmlns="http://www.w3.org/2000/svg"
   xmlns:xlink="http://www.w3.org/1999/xlink"
   xmlns:sodipodi="http://sodipodi.sourceforge.net/DTD/sodipodi-0.dtd"
   xmlns:inkscape="http://www.inkscape.org/namespaces/inkscape"
   version="1.1"
   preserveAspectRatio="none"
   x="0px"
   y="0px"
   width="100px"
   height="100px"
   viewBox="0 0 100 100"
   id="svg13"
   sodipodi:docname="H_kugel.svg"
   inkscape:version="0.92.1 r">
  <metadata
     id="metadata17">
    <rdf:RDF>
      <cc:Work
         rdf:about="">
        <dc:format>image/svg+xml</dc:format>
        <dc:type
           rdf:resource="http://purl.org/dc/dcmitype/StillImage" />
      </cc:Work>
    </rdf:RDF>
  </metadata>
  <sodipodi:namedview
     pagecolor="#ffffff"
     bordercolor="#666666"
     borderopacity="1"
     objecttolerance="10"
     gridtolerance="10"
     guidetolerance="10"
     inkscape:pageopacity="0"
     inkscape:pageshadow="2"
     inkscape:window-width="640"
     inkscape:window-height="480"
     id="namedview15"
     showgrid="false"
     inkscape:zoom="2.36"
     inkscape:cx="50"
     inkscape:cy="50"
     inkscape:window-x="0"
     inkscape:window-y="36"
     inkscape:window-maximized="0"
     inkscape:current-layer="svg13" />
  <defs
     id="defs5">
    <g
       id="kugel_0_Layer0_0_FILL">
      <path
         fill="#000000"
         stroke="none"
         d=" M 25.75 -25.85 Q 15.1 -36.5 0 -36.5 -15.1 -36.5 -25.85 -25.85 -36.5 -15.1 -36.5 0 -36.5 15.1 -25.85 25.8 -15.1 36.5 0 36.5 15.1 36.5 25.75 25.8 36.5 15.1 36.5 0 36.5 -15.1 25.75 -25.85 M 0.05 -29.55 Q 12.35 -29.55 21.15 -20.8 23.8 -18.15 25.7 -15.1 24.95 -15.9 24.2 -16.65 15.65 -25.3 3.55 -25.3 0.1 -25.3 -3.1 -24.55 -0.85 -23.5 1.05 -21.6 5.4 -17.2 5.4 -11.1 5.4 -5 1.05 -0.65 -3.3 3.75 -9.45 3.75 -15.6 3.75 -19.95 -0.65 -22.65 -3.35 -23.65 -6.8 -25.65 -1.8 -25.65 4 -25.65 16.05 -17.1 24.6 -16.7 25 -16.25 25.4 -18.8 23.75 -21.1 21.45 -29.85 12.7 -29.85 0.3 -29.85 -12.05 -21.1 -20.8 -12.3 -29.55 0.05 -29.55 M 10.1 19.55 Q 10.1 22 8.4 23.7 6.7 25.4 4.25 25.4 1.8 25.4 0.05 23.7 -1.65 22 -1.65 19.55 -1.65 17.1 0.05 15.35 1.8 13.65 4.25 13.65 6.7 13.65 8.4 15.35 10.1 17.1 10.1 19.55 M 14.15 16.5 Q 14.15 15.35 14.9 14.6 15.65 13.8 16.85 13.8 17.95 13.8 18.75 14.6 19.55 15.35 19.55 16.5 19.55 17.6 18.75 18.4 17.95 19.2 16.85 19.2 15.65 19.2 14.9 18.4 14.15 17.6 14.15 16.5 Z"
         id="path2" />
    </g>
  </defs>
  <g
     transform="translate(50,50)"
     id="g11">
    <g
       id="g9">
      <use
         xlink:href="#kugel_0_Layer0_0_FILL"
         id="use7"
         x="0"
         y="0"
         width="100%"
         height="100%" />
    </g>
  </g>
</svg>
