<?xml version="1.0" encoding="UTF-8" standalone="no"?>
<svg
   xmlns:dc="http://purl.org/dc/elements/1.1/"
   xmlns:cc="http://creativecommons.org/ns#"
   xmlns:rdf="http://www.w3.org/1999/02/22-rdf-syntax-ns#"
   xmlns:svg="http://www.w3.org/2000/svg"
   xmlns="http://www.w3.org/2000/svg"
   xmlns:xlink="http://www.w3.org/1999/xlink"
   xmlns:sodipodi="http://sodipodi.sourceforge.net/DTD/sodipodi-0.dtd"
   xmlns:inkscape="http://www.inkscape.org/namespaces/inkscape"
   version="1.1"
   preserveAspectRatio="none"
   x="0px"
   y="0px"
   width="100px"
   height="100px"
   viewBox="0 0 100 100"
   id="svg13"
   sodipodi:docname="I_ok.svg"
   inkscape:version="0.92.1 r">
  <metadata
     id="metadata17">
    <rdf:RDF>
      <cc:Work
         rdf:about="">
        <dc:format>image/svg+xml</dc:format>
        <dc:type
           rdf:resource="http://purl.org/dc/dcmitype/StillImage" />
      </cc:Work>
    </rdf:RDF>
  </metadata>
  <sodipodi:namedview
     pagecolor="#ffffff"
     bordercolor="#666666"
     borderopacity="1"
     objecttolerance="10"
     gridtolerance="10"
     guidetolerance="10"
     inkscape:pageopacity="0"
     inkscape:pageshadow="2"
     inkscape:window-width="640"
     inkscape:window-height="480"
     id="namedview15"
     showgrid="false"
     inkscape:zoom="2.36"
     inkscape:cx="50"
     inkscape:cy="50"
     inkscape:window-x="0"
     inkscape:window-y="36"
     inkscape:window-maximized="0"
     inkscape:current-layer="svg13" />
  <defs
     id="defs5">
    <g
       id="ok_0_Layer0_0_FILL">
      <path
         fill="#000000"
         stroke="none"
         d=" M 25.55 -30.8 Q 23.7 -31.65 22.65 -31.95 21 -32.7 19.75 -32.9 17.65 -33.3 15.5 -32.5 13.4 -31.75 11.95 -30.1 10.3 -28.25 8.95 -24.3 4.5 -12.35 -0.15 -5.2 -3.3 0 -3.7 1 -4.2 2.7 -4.65 3.5 -5.25 4.85 -6.2 5.6 -7.1 6.2 -8.8 6.5 -9.2 5.6 -10 4.35 -10.35 3.7 -10.55 3 -11.15 1.45 -13.85 -2.6 -15 -4.35 -16.7 -7.4 -16.85 -7.55 -17 -7.65 -18.45 -8.7 -18.7 -8.8 -19.9 -9.25 -22.05 -8.2 -26.45 -6 -28.7 -4.45 -32.2 -1.9 -32.5 -1.75 -34.85 -0.35 -35.35 0.1 -36 0.8 -36.25 1.6 -36.45 2.35 -36.25 3 L -27.15 15.35 Q -23 20.95 -20.7 23.5 -17.8 26.65 -15.3 28.7 -12.4 31.2 -10 32.25 -6.7 33.7 -3.8 32.45 -1.85 31.6 1.15 27.9 6.25 21.25 16.75 8.15 26.05 -3.65 31.65 -12.15 34.35 -16.3 35.7 -19.6 36.85 -23.15 36 -25.45 34.9 -28 31.45 -29.15 27.5 -30.2 25.55 -30.8 Z"
         id="path2" />
    </g>
  </defs>
  <g
     transform="translate(49.994375,50.002315)"
     id="g11">
    <g
       id="g9">
      <use
         xlink:href="#ok_0_Layer0_0_FILL"
         id="use7"
         x="0"
         y="0"
         width="100%"
         height="100%" />
    </g>
  </g>
</svg>
