<?xml version="1.0" encoding="UTF-8" standalone="no"?>
<svg
   xmlns:dc="http://purl.org/dc/elements/1.1/"
   xmlns:cc="http://creativecommons.org/ns#"
   xmlns:rdf="http://www.w3.org/1999/02/22-rdf-syntax-ns#"
   xmlns:svg="http://www.w3.org/2000/svg"
   xmlns="http://www.w3.org/2000/svg"
   xmlns:xlink="http://www.w3.org/1999/xlink"
   xmlns:sodipodi="http://sodipodi.sourceforge.net/DTD/sodipodi-0.dtd"
   xmlns:inkscape="http://www.inkscape.org/namespaces/inkscape"
   version="1.1"
   preserveAspectRatio="none"
   x="0px"
   y="0px"
   width="100px"
   height="100px"
   viewBox="0 0 100 100"
   id="svg13"
   sodipodi:docname="J_option.svg"
   inkscape:version="0.92.1 r">
  <metadata
     id="metadata17">
    <rdf:RDF>
      <cc:Work
         rdf:about="">
        <dc:format>image/svg+xml</dc:format>
        <dc:type
           rdf:resource="http://purl.org/dc/dcmitype/StillImage" />
      </cc:Work>
    </rdf:RDF>
  </metadata>
  <sodipodi:namedview
     pagecolor="#ffffff"
     bordercolor="#666666"
     borderopacity="1"
     objecttolerance="10"
     gridtolerance="10"
     guidetolerance="10"
     inkscape:pageopacity="0"
     inkscape:pageshadow="2"
     inkscape:window-width="640"
     inkscape:window-height="480"
     id="namedview15"
     showgrid="false"
     inkscape:zoom="2.36"
     inkscape:cx="50"
     inkscape:cy="50"
     inkscape:window-x="0"
     inkscape:window-y="36"
     inkscape:window-maximized="0"
     inkscape:current-layer="svg13" />
  <defs
     id="defs5">
    <g
       id="option_0_Layer0_0_FILL">
      <path
         fill="#000000"
         stroke="none"
         d=" M 20.9 -30.45 Q 20.55 -30.45 20.25 -30.45 18.2 -29.75 16.45 -28.8 14.75 -28.05 13.2 -27.35 12.1 -26.6 10.85 -26.1 9.7 -30.85 6.9 -35.55 6.6 -35.75 6.4 -35.85 5.95 -36.05 5.55 -36.15 0.15 -35.95 -5.2 -35.65 -5.65 -35.3 -5.85 -34.8 -7.4 -31.9 -8.75 -28.9 -9.35 -27.45 -10.5 -26.3 -15.45 -28.4 -19.85 -29.4 -20.65 -28.8 -21.4 -28.05 -25.65 -24.15 -28.75 -20 -28.65 -17.6 -27.7 -15.55 -27.2 -14.3 -26.65 -13.05 L -26.15 -10.75 Q -27.1 -10.25 -27.9 -9.75 -28.4 -9.55 -28.85 -9.3 -29.15 -9.2 -29.35 -9 -32.75 -8.6 -36 -6.5 -36.2 -6.1 -36.4 -5.6 -37.35 -3.4 -37.15 -0.8 -37 0 -36.9 0.95 -36.7 1.75 -36.7 2.6 -36.6 5.3 -35.8 7.45 L -26.05 11.5 Q -29.15 16.6 -30.1 21.95 -29.85 22.5 -29.55 23 -29.15 23.6 -28.55 24.25 -28.1 24.65 -27.8 25.2 -25.75 28.2 -22.5 29.95 -22.1 30.05 -21.05 29.75 -16.3 28.3 -11.65 26.4 -11.35 27.15 -10.9 27.85 -10.2 29.1 -9.45 30.35 -9.25 30.65 -9.05 31.1 -8.95 31.3 -8.85 31.7 -8.1 34.5 -6.25 35.95 -5.95 36.05 -5.65 36.05 -2.85 36.05 0.35 36.05 1.1 35.95 1.95 35.95 L 5.05 36.15 Q 5.65 36.15 6.8 35.95 7.95 34.9 8.35 33.35 8.45 32.85 8.65 32.55 9.2 31.8 9.7 31.2 10.55 29.95 11.15 28.6 12.1 26.75 13.3 27.15 13.65 27.25 14.05 27.45 17.65 29.95 21.6 30.15 22.45 28.9 23.35 28.1 24.7 26.95 25.95 25.7 26.15 25.5 26.4 25.2 28.05 23.4 30.1 21.85 L 26.6 10.55 36.85 5.5 Q 36.95 5.2 37.05 4.85 37.15 4.55 37.15 4.15 37.15 0.4 37.05 -3.3 36.95 -4.65 37.15 -5.9 37.35 -7.95 36.2 -9.55 32.2 -10.65 28.25 -11.5 26.25 -12.2 24.8 -12.75 25.35 -13.4 26.8 -14.85 28.2 -16.35 29.8 -19.25 L 30.3 -20.1 30 -21.45 20.9 -30.45 M 4.4 -15.2 Q 6.4 -14.4 8.45 -13.55 11.65 -12.3 13.65 -9.2 15.6 -6 16.1 -3 16.45 -1.35 16.55 0.4 16.55 1.65 15.9 2.8 15.1 4.55 14.15 6.55 13.2 8.4 11.75 9.55 9.8 11.2 7.75 12.85 5.15 15.15 1.5 14.9 -1.9 14.7 -5.1 13.35 -9.35 11.9 -11.95 9 -14.65 6 -15.15 2.1 -15.7 -1.45 -15.05 -5.3 -14.35 -9.2 -11.25 -11.6 -8.45 -13.9 -5.2 -15.45 -4.2 -15.85 -3.45 -15.95 0.35 -16.35 4.4 -15.2 Z"
         id="path2" />
    </g>
  </defs>
  <g
     transform="translate(50.002576,50)"
     id="g11">
    <g
       id="g9">
      <use
         xlink:href="#option_0_Layer0_0_FILL"
         id="use7"
         x="0"
         y="0"
         width="100%"
         height="100%" />
    </g>
  </g>
</svg>
