<?xml version="1.0" encoding="UTF-8" standalone="no"?>
<svg
   xmlns:dc="http://purl.org/dc/elements/1.1/"
   xmlns:cc="http://creativecommons.org/ns#"
   xmlns:rdf="http://www.w3.org/1999/02/22-rdf-syntax-ns#"
   xmlns:svg="http://www.w3.org/2000/svg"
   xmlns="http://www.w3.org/2000/svg"
   xmlns:xlink="http://www.w3.org/1999/xlink"
   xmlns:sodipodi="http://sodipodi.sourceforge.net/DTD/sodipodi-0.dtd"
   xmlns:inkscape="http://www.inkscape.org/namespaces/inkscape"
   version="1.1"
   preserveAspectRatio="none"
   x="0px"
   y="0px"
   width="100px"
   height="100px"
   viewBox="0 0 100 100"
   id="svg13"
   sodipodi:docname="K_pause.svg"
   inkscape:version="0.92.1 r">
  <metadata
     id="metadata17">
    <rdf:RDF>
      <cc:Work
         rdf:about="">
        <dc:format>image/svg+xml</dc:format>
        <dc:type
           rdf:resource="http://purl.org/dc/dcmitype/StillImage" />
      </cc:Work>
    </rdf:RDF>
  </metadata>
  <sodipodi:namedview
     pagecolor="#ffffff"
     bordercolor="#666666"
     borderopacity="1"
     objecttolerance="10"
     gridtolerance="10"
     guidetolerance="10"
     inkscape:pageopacity="0"
     inkscape:pageshadow="2"
     inkscape:window-width="640"
     inkscape:window-height="480"
     id="namedview15"
     showgrid="false"
     inkscape:zoom="2.36"
     inkscape:cx="50"
     inkscape:cy="50"
     inkscape:window-x="0"
     inkscape:window-y="36"
     inkscape:window-maximized="0"
     inkscape:current-layer="svg13" />
  <defs
     id="defs5">
    <g
       id="pause_0_Layer0_0_FILL">
      <path
         fill="#000000"
         stroke="none"
         d=" M -5.5 -25.85 Q -5.65 -26.4 -5.75 -26.9 L -5.95 -29.65 -6.75 -30.45 Q -7.7 -31.4 -8.75 -31.75 -9.1 -31.9 -11.1 -32.2 -16.55 -32.6 -21.4 -32.1 -22.35 -32.1 -23.05 -31.75 L -23.85 -31.15 Q -25.05 -30.85 -25.75 -30 -26.05 -29.35 -26.05 -29.2 -26.05 -28.7 -25.9 -28.4 -26.05 -28.15 -26.15 -27.9 -26.65 -26.4 -26.4 -24.3 -25.9 -12.35 -27.1 11.35 -27.55 22 -26.75 27.25 -26.55 28.9 -25.85 29.6 -25.25 30.15 -23.4 30.65 -19.55 31.2 -14.2 31.2 -10.25 31.2 -8.25 30.15 -6.9 29.6 -5.95 28.4 -4.95 27 -5 25.65 -5 25.5 -5 25.4 -4.8 24.7 -5 24.25 -4.8 23.9 -4.8 23.55 -4.45 22.25 -4.7 19.5 L -5.95 1.85 Q -6.45 -5.15 -6.3 -9.45 L -6.2 -11.05 Q -5.95 -13.05 -5.85 -15.35 -5.75 -17 -5.4 -19.45 -5 -23.25 -5.5 -25.85 M 25.05 -30.35 Q 23.8 -31.3 20.55 -31.5 L 13.8 -31.9 Q 9.95 -32.1 8.35 -31.1 6 -29.65 5.5 -26.4 5.45 -25.15 5.65 -20.8 6 -16.05 5.75 -9.35 5.45 -1.8 5.3 2.05 L 5.5 24.7 Q 5.5 29.6 7.65 31.1 8.75 31.9 12.05 32.15 L 17.3 32.4 Q 21.55 32.6 23.65 31.35 26 30.05 26.8 26.9 27.35 24.7 27.15 21.2 27.05 14 26.65 -0.55 26.45 -13.2 27.15 -22.35 27.35 -25.25 27.15 -26.65 26.8 -29.2 25.05 -30.35 Z"
         id="path2" />
    </g>
  </defs>
  <g
     transform="translate(50.006,49.975096)"
     id="g11">
    <g
       id="g9">
      <use
         xlink:href="#pause_0_Layer0_0_FILL"
         id="use7"
         x="0"
         y="0"
         width="100%"
         height="100%" />
    </g>
  </g>
</svg>
