<?xml version="1.0" encoding="UTF-8" standalone="no"?>
<svg
   xmlns:dc="http://purl.org/dc/elements/1.1/"
   xmlns:cc="http://creativecommons.org/ns#"
   xmlns:rdf="http://www.w3.org/1999/02/22-rdf-syntax-ns#"
   xmlns:svg="http://www.w3.org/2000/svg"
   xmlns="http://www.w3.org/2000/svg"
   xmlns:xlink="http://www.w3.org/1999/xlink"
   xmlns:sodipodi="http://sodipodi.sourceforge.net/DTD/sodipodi-0.dtd"
   xmlns:inkscape="http://www.inkscape.org/namespaces/inkscape"
   version="1.1"
   preserveAspectRatio="none"
   x="0px"
   y="0px"
   width="100px"
   height="100px"
   viewBox="0 0 100 100"
   id="svg13"
   sodipodi:docname="L_repeat.svg"
   inkscape:version="0.92.1 r">
  <metadata
     id="metadata17">
    <rdf:RDF>
      <cc:Work
         rdf:about="">
        <dc:format>image/svg+xml</dc:format>
        <dc:type
           rdf:resource="http://purl.org/dc/dcmitype/StillImage" />
      </cc:Work>
    </rdf:RDF>
  </metadata>
  <sodipodi:namedview
     pagecolor="#ffffff"
     bordercolor="#666666"
     borderopacity="1"
     objecttolerance="10"
     gridtolerance="10"
     guidetolerance="10"
     inkscape:pageopacity="0"
     inkscape:pageshadow="2"
     inkscape:window-width="640"
     inkscape:window-height="480"
     id="namedview15"
     showgrid="false"
     inkscape:zoom="2.36"
     inkscape:cx="50"
     inkscape:cy="50"
     inkscape:window-x="0"
     inkscape:window-y="36"
     inkscape:window-maximized="0"
     inkscape:current-layer="svg13" />
  <defs
     id="defs5">
    <g
       id="repeat_0_Layer0_0_FILL">
      <path
         fill="#000000"
         stroke="none"
         d=" M 28.4 -16.95 Q 26.05 -20.45 23 -23.4 13.05 -33.5 -1.15 -32.25 -4.25 -31.8 -7.3 -30.95 -16.2 -28.7 -21.75 -20.75 -24.4 -22.8 -27.05 -24.6 -28.85 -25.85 -31.05 -25.1 -31.8 -24.4 -32.35 -23.55 -33.1 -22.35 -33.3 -20.9 -33.7 -17.5 -33.5 -14 -33.1 -7.55 -31.9 -1.25 -30.95 3.5 -28.85 7.95 -28.2 9.3 -26.95 10.2 -25.85 11 -24.6 10.8 -17.8 10.05 -11.25 6.7 -9.25 5.8 -7.35 4.65 -0.95 0.95 2.95 -5.1 4.15 -7.1 3.25 -9.55 L -4.9 -13.8 -4.35 -14.55 Q -2.95 -14.95 -1.5 -15.25 4.75 -15.35 10.15 -12 L 12.6 -10.4 Q 15.25 -5.2 14.3 0.55 13.9 2.55 13.45 4.65 12.6 8.6 9 10.3 7 11.15 4.55 11.55 0.85 10.8 -2.35 10.6 -4.35 11.95 -5.6 13.8 -7.95 17.7 -10.8 21.7 -11.8 23.1 -12.5 24.7 -12.95 25.75 -12.65 27 -12.4 28 -11.55 28.75 -7.75 31.5 -2.55 32.2 2.85 32.75 8.05 32.1 21.3 29.8 28.1 17.9 29.55 15.45 30.75 12.85 33.15 7.75 33.5 1.9 33.7 -1.15 33.5 -4.05 33.25 -7 32.2 -9.75 30.75 -13.65 28.4 -16.95 Z"
         id="path2" />
    </g>
  </defs>
  <g
     transform="translate(49.983333,49.967791)"
     id="g11">
    <g
       id="g9">
      <use
         xlink:href="#repeat_0_Layer0_0_FILL"
         id="use7"
         x="0"
         y="0"
         width="100%"
         height="100%" />
    </g>
  </g>
</svg>
