<?xml version="1.0" encoding="UTF-8" standalone="no"?>
<svg
   xmlns:dc="http://purl.org/dc/elements/1.1/"
   xmlns:cc="http://creativecommons.org/ns#"
   xmlns:rdf="http://www.w3.org/1999/02/22-rdf-syntax-ns#"
   xmlns:svg="http://www.w3.org/2000/svg"
   xmlns="http://www.w3.org/2000/svg"
   xmlns:xlink="http://www.w3.org/1999/xlink"
   xmlns:sodipodi="http://sodipodi.sourceforge.net/DTD/sodipodi-0.dtd"
   xmlns:inkscape="http://www.inkscape.org/namespaces/inkscape"
   version="1.1"
   preserveAspectRatio="none"
   x="0px"
   y="0px"
   width="100px"
   height="100px"
   viewBox="0 0 100 100"
   id="svg13"
   sodipodi:docname="O_sturm.svg"
   inkscape:version="0.92.1 r">
  <metadata
     id="metadata17">
    <rdf:RDF>
      <cc:Work
         rdf:about="">
        <dc:format>image/svg+xml</dc:format>
        <dc:type
           rdf:resource="http://purl.org/dc/dcmitype/StillImage" />
      </cc:Work>
    </rdf:RDF>
  </metadata>
  <sodipodi:namedview
     pagecolor="#ffffff"
     bordercolor="#666666"
     borderopacity="1"
     objecttolerance="10"
     gridtolerance="10"
     guidetolerance="10"
     inkscape:pageopacity="0"
     inkscape:pageshadow="2"
     inkscape:window-width="640"
     inkscape:window-height="480"
     id="namedview15"
     showgrid="false"
     inkscape:zoom="2.36"
     inkscape:cx="50"
     inkscape:cy="50"
     inkscape:window-x="0"
     inkscape:window-y="36"
     inkscape:window-maximized="0"
     inkscape:current-layer="svg13" />
  <defs
     id="defs5">
    <g
       id="storm_0_Layer0_0_FILL">
      <path
         fill="#000000"
         stroke="none"
         d=" M 4.3 28 L 3.1 27.15 Q 1.4 27 -0.35 26.9 -3.85 26.4 -7.2 25.05 -8.55 24.8 -9.95 25.5 -11.6 26.2 -11.6 28.45 -11.6 29.6 -11.05 30 -7.75 32.35 -3.7 32.6 -0.8 33.55 2.15 33.6 3.55 33.5 4.65 32.4 5.15 31.9 5.35 31.15 5.9 28.8 4.3 28 M 32.6 -30.3 Q 29.55 -33 25.7 -33.1 23.6 -33.25 21.55 -33.05 18.1 -33.5 14.5 -33.55 10.85 -33.35 7.1 -33.15 4.85 -32.95 2.6 -32.7 -0.8 -32.5 -4.2 -32.05 -7.95 -31.45 -11.7 -30.3 -13.55 -29.7 -15.4 -29.05 -16.2 -28.75 -17.05 -28.35 -19.7 -26.85 -22.4 -25.25 -24.55 -24.05 -26.65 -22.7 -28.15 -21.65 -29.6 -20.4 -32.2 -17.9 -33.8 -14.2 -34.4 -12.8 -34.3 -11.55 -34.3 -10.9 -34.05 -10.35 -33.5 -8.8 -32.75 -7.25 -31.7 -4.95 -30 -3.5 -27.45 -1.3 -24.6 0.05 -20.8 1.9 -16.95 3.25 -14.3 3.85 -11.7 4.5 -10.45 4.7 -9.2 5 -7.2 5.3 -5.25 5.6 -1.4 6.15 2.45 6.6 -0.95 7.75 -4.55 7.85 -13.65 8.25 -22.6 5.95 -24.65 5.7 -26.75 5.8 -27.45 5.7 -27.75 6.8 -28.15 8.05 -27.8 9.4 -27.5 10.55 -27 11.55 -25.55 13.9 -23.55 15.3 -21.05 16.85 -18.55 18.35 -17.25 19.2 -15.75 19.6 -12.9 20.6 -9.9 21.4 -2.45 23.45 5.25 22.95 8.25 22.65 10.6 19.95 11.8 18.65 11.25 16.75 10.95 15.55 10.05 15 8.9 14.45 7.35 14.9 5.75 15.45 4.1 15.75 2.8 16 1.5 16.1 1.05 16.05 0.65 16 -3.95 15.7 -8.55 15.5 -10.6 15.25 -12.75 14.5 -8.35 15 -3.95 14.65 3.85 13.8 11.45 10.45 13.55 9.5 15.7 8.35 17 7.55 18.3 6.5 19.6 5.35 20.7 4.15 21.55 3.3 22.1 2.1 22.4 1.35 22.5 0.55 22.55 -0.15 22.4 -0.65 21.4 -2.7 19.7 -1.7 17.25 -0.4 14.6 0.05 13.6 0.2 12.5 0.4 12 0.4 11.4 0.5 9.75 0.3 8.15 0.15 4.9 -0.2 1.6 -0.9 6.6 -1.4 11.65 -2.65 14.25 -3.3 16.75 -3.9 22.75 -5.2 28.5 -8.75 29.5 -9.3 29.9 -10.65 30.1 -11.3 30 -12.15 29.7 -13.65 28.7 -14.15 28.35 -14.15 28.05 -14 26.2 -13.1 24.2 -12.15 21.8 -11.1 19.25 -10.2 18.05 -9.75 16.8 -9.45 15.1 -8.95 13.3 -8.55 10.6 -8.05 8.15 -8.25 8.5 -8.45 8.9 -8.5 12.55 -9.35 16.1 -10.45 19.1 -11.3 22 -12.75 25.4 -14.45 28.5 -17.1 29.8 -18.3 31.25 -19.35 32.3 -20.1 33.1 -21.4 34.3 -23.5 34.3 -26.15 34.35 -27.65 33.65 -28.95 33.2 -29.8 32.6 -30.3 M 25.45 -26.3 Q 27.1 -25.7 28.75 -25.05 28.25 -23.9 27.25 -23.25 23.4 -21.1 19.75 -19.45 16.75 -18.15 13.85 -16.8 11.7 -15.95 9.55 -15.5 7.4 -15.2 5.4 -14.8 -1 -13.5 -7.4 -13.15 -15.65 -12.75 -23.9 -12.6 -26.15 -12.7 -28.3 -12.7 L -28.6 -13.3 Q -27.85 -13.8 -27.05 -14.35 -23.15 -16.95 -19 -18.65 -17.3 -19.25 -15.6 -19.8 -14.25 -20.35 -12.8 -20.9 -10.8 -21.55 -8.65 -22.45 -3.65 -24.65 1.55 -25.2 9.85 -26.2 18 -27 21.85 -27.25 25.45 -26.3 Z"
         id="path2" />
    </g>
  </defs>
  <g
     transform="translate(50.005476,49.975)"
     id="g11">
    <g
       id="g9">
      <use
         xlink:href="#storm_0_Layer0_0_FILL"
         id="use7"
         x="0"
         y="0"
         width="100%"
         height="100%" />
    </g>
  </g>
</svg>
