<?xml version="1.0" encoding="UTF-8" standalone="no"?>
<svg
   xmlns:dc="http://purl.org/dc/elements/1.1/"
   xmlns:cc="http://creativecommons.org/ns#"
   xmlns:rdf="http://www.w3.org/1999/02/22-rdf-syntax-ns#"
   xmlns:svg="http://www.w3.org/2000/svg"
   xmlns="http://www.w3.org/2000/svg"
   xmlns:xlink="http://www.w3.org/1999/xlink"
   xmlns:sodipodi="http://sodipodi.sourceforge.net/DTD/sodipodi-0.dtd"
   xmlns:inkscape="http://www.inkscape.org/namespaces/inkscape"
   version="1.1"
   preserveAspectRatio="none"
   x="0px"
   y="0px"
   width="100px"
   height="100px"
   viewBox="0 0 100 100"
   id="svg13"
   sodipodi:docname="P_info.svg"
   inkscape:version="0.92.1 r">
  <metadata
     id="metadata17">
    <rdf:RDF>
      <cc:Work
         rdf:about="">
        <dc:format>image/svg+xml</dc:format>
        <dc:type
           rdf:resource="http://purl.org/dc/dcmitype/StillImage" />
      </cc:Work>
    </rdf:RDF>
  </metadata>
  <sodipodi:namedview
     pagecolor="#ffffff"
     bordercolor="#666666"
     borderopacity="1"
     objecttolerance="10"
     gridtolerance="10"
     guidetolerance="10"
     inkscape:pageopacity="0"
     inkscape:pageshadow="2"
     inkscape:window-width="640"
     inkscape:window-height="480"
     id="namedview15"
     showgrid="false"
     inkscape:zoom="2.36"
     inkscape:cx="50"
     inkscape:cy="50"
     inkscape:window-x="0"
     inkscape:window-y="36"
     inkscape:window-maximized="0"
     inkscape:current-layer="svg13" />
  <defs
     id="defs5">
    <g
       id="info_0_Layer0_0_FILL">
      <path
         fill="#000000"
         stroke="none"
         d=" M 3.95 -14.95 Q 3.15 -15 2.35 -15.05 -1.9 -15.15 -5.8 -14.4 -7.05 -14.1 -8.25 -13.6 -9.15 -13.4 -9.8 -12.8 -10.95 -11.8 -11.65 -10.45 -12.4 -8.9 -12.6 -7.15 -12.75 -6.05 -12.45 -5 -12.15 -3.9 -11.15 -3.35 -9.3 -2.35 -7.1 -1.9 -7.25 0.25 -7.45 2.45 -7.6 3.7 -7.55 4.8 -7.35 10.8 -7.15 16.85 -7.05 19.35 -7.5 21.9 -8.5 22.2 -9.25 22.75 -10.15 23.35 -11 24.05 -11.9 24.8 -12.4 25.7 -13.15 27.15 -13.25 28.65 -13.3 29.35 -13.15 29.7 -12.4 31.2 -11.8 32.5 -11.3 33.6 -10.15 34 -7.9 34.75 -5.45 35 0.7 35.85 6.75 34.95 7.2 34.85 7.65 34.75 8.9 34.35 9.8 33.8 10.4 33.5 10.9 33 11.6 32.35 12.05 31.55 12.55 30.75 12.85 29.85 13.45 27.95 12.75 26.2 11.2 22.25 7.05 21.9 6.5 16.25 6.15 10.6 6.05 8.8 6 6.95 5.85 2.8 7 -1.1 7.1 -1.5 7.25 -1.9 7.45 -2.1 7.7 -2.25 8.5 -2.55 9.25 -2.95 10.65 -3.6 11.5 -4.75 12.75 -6.3 13.2 -8.3 13.55 -10 12.7 -11.35 12.25 -11.9 11.75 -12.4 10.7 -13.35 9.45 -13.85 6.85 -14.8 3.95 -14.95 M 7.3 -31.4 Q 6.3 -34.6 3 -35.15 -1.15 -35.9 -4.8 -34.4 -5.55 -34 -6.25 -33.55 -6.7 -33.35 -7.05 -33.05 -10 -30.1 -9.2 -25.85 -8.9 -24.3 -8.35 -22.8 -7.95 -21.75 -7.2 -20.9 -6.65 -20.2 -5.9 -19.7 -2.4 -17.75 1.55 -18 2.25 -18.3 2.95 -18.6 4.8 -19.3 6.1 -20.65 8.75 -23.35 8.2 -27.25 7.9 -29.4 7.3 -31.4 Z"
         id="path2" />
    </g>
  </defs>
  <g
     transform="translate(49.980208,49.993571)"
     id="g11">
    <g
       id="g9">
      <use
         xlink:href="#info_0_Layer0_0_FILL"
         id="use7"
         x="0"
         y="0"
         width="100%"
         height="100%" />
    </g>
  </g>
</svg>
