<?xml version="1.0" encoding="UTF-8" standalone="no"?>
<svg
   xmlns:dc="http://purl.org/dc/elements/1.1/"
   xmlns:cc="http://creativecommons.org/ns#"
   xmlns:rdf="http://www.w3.org/1999/02/22-rdf-syntax-ns#"
   xmlns:svg="http://www.w3.org/2000/svg"
   xmlns="http://www.w3.org/2000/svg"
   xmlns:xlink="http://www.w3.org/1999/xlink"
   xmlns:sodipodi="http://sodipodi.sourceforge.net/DTD/sodipodi-0.dtd"
   xmlns:inkscape="http://www.inkscape.org/namespaces/inkscape"
   version="1.1"
   preserveAspectRatio="none"
   x="0px"
   y="0px"
   width="100px"
   height="100px"
   viewBox="0 0 100 100"
   id="svg11"
   sodipodi:docname="Q_hamburger.svg"
   inkscape:version="0.92.1 r">
  <metadata
     id="metadata15">
    <rdf:RDF>
      <cc:Work
         rdf:about="">
        <dc:format>image/svg+xml</dc:format>
        <dc:type
           rdf:resource="http://purl.org/dc/dcmitype/StillImage" />
      </cc:Work>
    </rdf:RDF>
  </metadata>
  <sodipodi:namedview
     pagecolor="#ffffff"
     bordercolor="#666666"
     borderopacity="1"
     objecttolerance="10"
     gridtolerance="10"
     guidetolerance="10"
     inkscape:pageopacity="0"
     inkscape:pageshadow="2"
     inkscape:window-width="640"
     inkscape:window-height="480"
     id="namedview13"
     showgrid="false"
     inkscape:zoom="2.36"
     inkscape:cx="50"
     inkscape:cy="50"
     inkscape:window-x="0"
     inkscape:window-y="36"
     inkscape:window-maximized="0"
     inkscape:current-layer="svg11" />
  <defs
     id="defs5">
    <g
       id="Layer0_0_FILL">
      <path
         fill="#000000"
         stroke="none"
         d=" M 21.1 55.6 Q 21.05 55.6 21 55.6 20.95 55.6 20.9 55.65 17.15 56.5 15.9 60.25 L 15.9 60.3 Q 15.45 61.5 15.6 62.75 15.8 64.6 17 66 17.35 66.65 17.85 67.2 17.85 67.25 17.95 67.3 18.85 68.5 20.35 68.45 23.45 68.9 25.9 66.9 27.1 65.9 28.15 64.65 29 63.6 29.3 62.35 29.65 61 29.1 59.95 L 29.1 59.9 Q 27.45 56.95 24.1 55.7 L 24.05 55.7 Q 22.45 55.1 21.1 55.6 M 16.05 44.5 Q 16.7 45.45 17.6 46.35 L 17.65 46.35 Q 20.65 49.3 24.7 49.05 L 24.75 49.05 Q 26.5 48.9 27.9 47.5 L 27.85 47.6 Q 29.35 46.25 30.4 44.95 31.55 43.55 31.9 41.85 L 31.9 41.8 Q 32 40.85 31.8 39.95 L 31.85 40 Q 31.65 38.9 30.9 38.2 30.9 38.15 30.85 38.15 27.8 35.4 23.35 35.3 23.15 35.3 23 35.35 17.75 36.5 15.75 41.5 L 15.75 41.55 Q 15.2 42.95 16 44.4 16.05 44.4 16.05 44.5 M 25.6 17.2 Q 25.15 17.05 24.75 17.15 24.3 17.2 23.9 17.35 22.75 17.3 21.8 17.65 21.75 17.65 21.7 17.7 18.4 18.65 16.75 21.75 L 16.75 21.7 Q 15.2 24.3 17.3 26.85 L 17.3 26.9 Q 20.4 30.5 24.8 31.2 25.1 31.25 25.45 31.15 27.15 30.6 28.65 29.2 L 28.65 29.15 Q 30.55 27.25 31.2 24.6 L 31.15 24.65 Q 31.65 22.5 30.4 20.85 28.45 18.3 25.6 17.2 M 82.85 67 Q 82.85 66.95 82.95 66.95 84.3 65.9 84.15 63.95 L 84.15 63.9 Q 84.1 62.9 83.95 62 83.2 57.9 79.2 56.8 L 79.15 56.8 Q 75.25 55.85 71.1 56.4 L 71.2 56.35 Q 66.9 56.7 62.65 57.05 58.3 57.25 54.05 57.45 49.65 57.5 45.35 57.5 40.9 57.5 36.5 57.45 36.3 57.45 36.1 57.5 34.75 57.8 33.7 58.6 33.7 58.65 33.65 58.65 31.25 60.55 32 63.8 32.75 67.3 36.45 67.75 L 36.5 67.75 Q 42.05 68.25 47.65 68.8 47.7 68.8 47.75 68.8 53.35 68.95 58.9 68.95 64.45 68.95 70.05 68.8 70.1 68.8 70.15 68.8 75.65 68.25 81.15 67.75 81.35 67.7 81.55 67.65 82.25 67.4 82.85 67 M 86.05 47.35 Q 86.1 47.2 86.15 47.05 87.1 43.45 85.4 40.55 L 85.45 40.6 Q 84.6 39.05 82.9 38.5 78.85 36.85 74.4 37.35 74.35 37.35 74.3 37.4 65.65 39 56.9 38.75 54.55 38.6 52.25 38.15 52.15 38.1 52.05 38.1 48.8 37.9 45.6 37.4 43.8 37.05 41.95 36.85 41.9 36.8 41.85 36.8 39.1 36.65 36.9 38.4 L 36.9 38.45 Q 34.1 40.55 34.1 43.8 34.1 46.05 36.1 46.55 L 36.05 46.55 Q 58.85 53.6 82.55 49.7 85 49.4 86.05 47.35 M 86.75 23.8 Q 85.3 22.7 83.85 21.8 78.7 18.55 72.55 17.9 67.6 17.5 62.85 18.3 55.65 18.95 48.5 18.05 44.45 17.6 40.65 19.45 37.85 20.8 36.25 23.35 L 36.25 23.4 Q 35.65 24.35 35.55 25.45 35.45 26.5 36.1 27.35 36.8 28.3 37.9 28.65 55.25 34.5 73.45 32.75 77.1 32.55 80.75 31.6 L 80.85 31.6 Q 83.15 30.85 84.8 29.35 L 84.85 29.3 Q 85.55 28.6 86.3 27.95 L 86.35 27.9 Q 87.8 26.65 87.35 24.7 87.2 24.15 86.75 23.8 Z"
         id="path2" />
    </g>
  </defs>
  <g
     transform="translate(-1.4912524,6.97)"
     id="g9">
    <use
       xlink:href="#Layer0_0_FILL"
       id="use7"
       x="0"
       y="0"
       width="100%"
       height="100%" />
  </g>
</svg>
