<?xml version="1.0" encoding="UTF-8" standalone="no"?>
<svg
   xmlns:dc="http://purl.org/dc/elements/1.1/"
   xmlns:cc="http://creativecommons.org/ns#"
   xmlns:rdf="http://www.w3.org/1999/02/22-rdf-syntax-ns#"
   xmlns:svg="http://www.w3.org/2000/svg"
   xmlns="http://www.w3.org/2000/svg"
   xmlns:xlink="http://www.w3.org/1999/xlink"
   xmlns:sodipodi="http://sodipodi.sourceforge.net/DTD/sodipodi-0.dtd"
   xmlns:inkscape="http://www.inkscape.org/namespaces/inkscape"
   version="1.1"
   preserveAspectRatio="none"
   x="0px"
   y="0px"
   width="100px"
   height="100px"
   viewBox="0 0 100 100"
   id="svg11"
   sodipodi:docname="R_home.svg"
   inkscape:version="0.92.1 r">
  <metadata
     id="metadata15">
    <rdf:RDF>
      <cc:Work
         rdf:about="">
        <dc:format>image/svg+xml</dc:format>
        <dc:type
           rdf:resource="http://purl.org/dc/dcmitype/StillImage" />
      </cc:Work>
    </rdf:RDF>
  </metadata>
  <sodipodi:namedview
     pagecolor="#ffffff"
     bordercolor="#666666"
     borderopacity="1"
     objecttolerance="10"
     gridtolerance="10"
     guidetolerance="10"
     inkscape:pageopacity="0"
     inkscape:pageshadow="2"
     inkscape:window-width="640"
     inkscape:window-height="480"
     id="namedview13"
     showgrid="false"
     inkscape:zoom="2.36"
     inkscape:cx="50"
     inkscape:cy="50"
     inkscape:window-x="0"
     inkscape:window-y="36"
     inkscape:window-maximized="0"
     inkscape:current-layer="svg11" />
  <defs
     id="defs5">
    <g
       id="Layer0_0_FILL">
      <path
         fill="#000000"
         stroke="none"
         d=" M 82.8 69.1 Q 82.95 66.6 83.3 64.15 88.5 64.35 90.2 59.55 90.9 57.6 90.05 55.7 89.75 54.85 89.15 54.2 88.35 53.45 87.6 52.7 85.05 50.45 82.75 47.95 80.45 45.6 78.05 43.45 73.1 38.9 68.7 33.8 66.5 31.35 64.25 28.95 61.05 25.45 57.2 22.95 56.6 22.6 56 22.25 56.15 21.45 56.15 20.5 56.15 19 56.45 17.5 57.5 17.2 58.55 17.15 61.15 17.3 63 19.65 69.25 27.5 79 24 83.2 22.45 81.35 18.7 80.65 17.25 79 17.5 76.75 17.85 74.55 18.3 71.2 19 69.3 16.35 65.7 11.3 59.65 10.75 58.3 10.8 57.05 11.1 56.25 9.1 53.75 8.05 52.95 8.3 52.35 8.7 52.1 8.8 51.9 9 49.75 10.6 49.8 14.05 49.85 17.3 48.9 20.35 48.65 21.15 48.6 21.9 48.15 22.2 47.75 22.6 44.5 25.75 41.4 29.15 36.4 34.5 31.05 39.6 25.6 44.7 20.45 50 17.9 52.65 15.65 55.55 15 56.3 14.7 57.35 14 59.95 15.7 62.2 18.65 65.95 23.6 65.05 23.6 69.25 23.6 73.5 23.6 76.2 23.2 78.9 22.55 83.2 26.15 85.75 28.25 87.15 30.6 87.9 31.05 88 31.5 88.1 32.65 87.6 34.3 87.6 34.75 87.4 35.3 87.25 36.95 86.8 38.4 85.9 38.65 85.25 38.8 84.45 38.9 83.85 39.05 83.25 39.6 77.65 39.95 71.9 40.3 65.7 46.55 65.1 55.15 65.05 55.35 73 55.5 78.6 56.3 84.05 56.55 85.75 57.95 86.85 58 86.85 58.05 86.9 58.7 87.2 59.3 87.55 63.05 87.95 66.8 88.05 73 88.3 78.55 85.45 79.3 85.05 79.8 84.4 80.35 83.8 80.55 83 82.45 76.2 82.8 69.1 Z"
         id="path2" />
    </g>
  </defs>
  <g
     transform="translate(-2.5059812,1.925)"
     id="g9">
    <use
       xlink:href="#Layer0_0_FILL"
       id="use7"
       x="0"
       y="0"
       width="100%"
       height="100%" />
  </g>
</svg>
