<?xml version="1.0" encoding="UTF-8" standalone="no"?>
<svg
   xmlns:dc="http://purl.org/dc/elements/1.1/"
   xmlns:cc="http://creativecommons.org/ns#"
   xmlns:rdf="http://www.w3.org/1999/02/22-rdf-syntax-ns#"
   xmlns:svg="http://www.w3.org/2000/svg"
   xmlns="http://www.w3.org/2000/svg"
   xmlns:xlink="http://www.w3.org/1999/xlink"
   xmlns:sodipodi="http://sodipodi.sourceforge.net/DTD/sodipodi-0.dtd"
   xmlns:inkscape="http://www.inkscape.org/namespaces/inkscape"
   version="1.1"
   preserveAspectRatio="none"
   x="0px"
   y="0px"
   width="100px"
   height="100px"
   viewBox="0 0 100 100"
   id="svg11"
   sodipodi:docname="W_plus.svg"
   inkscape:version="0.92.1 r">
  <metadata
     id="metadata15">
    <rdf:RDF>
      <cc:Work
         rdf:about="">
        <dc:format>image/svg+xml</dc:format>
        <dc:type
           rdf:resource="http://purl.org/dc/dcmitype/StillImage" />
      </cc:Work>
    </rdf:RDF>
  </metadata>
  <sodipodi:namedview
     pagecolor="#ffffff"
     bordercolor="#666666"
     borderopacity="1"
     objecttolerance="10"
     gridtolerance="10"
     guidetolerance="10"
     inkscape:pageopacity="0"
     inkscape:pageshadow="2"
     inkscape:window-width="640"
     inkscape:window-height="480"
     id="namedview13"
     showgrid="false"
     inkscape:zoom="2.36"
     inkscape:cx="50"
     inkscape:cy="50"
     inkscape:window-x="0"
     inkscape:window-y="36"
     inkscape:window-maximized="0"
     inkscape:current-layer="svg11" />
  <defs
     id="defs5">
    <g
       id="Layer0_0_FILL">
      <path
         fill="#000000"
         stroke="none"
         d=" M 81.9 51.1 Q 81.9 50.95 81.9 50.85 82.2 49.65 82.2 48.45 82.25 45.55 80.6 43.35 80.55 43.3 80.5 43.25 79.5 42.1 78.15 41.95 76.25 41.75 74.35 41.45 71.85 41.1 69.35 41.1 67.15 40.95 64.9 40.8 62.8 40.65 60.6 40.55 54.25 39.6 54.4 36.45 55.1 31.75 54.1 23.3 53.1 14.6 51.45 13.3 50.9 12.6 49.9 11.65 49.85 11.6 49.8 11.6 49.8 11.55 49.75 11.55 48.3 10.5 46.55 10.05 44.1 9.35 41.8 10.3 41.6 10.35 41.5 10.45 L 41.45 10.5 Q 41.4 10.5 41.35 10.6 40.6 11.05 40.05 11.8 40 11.8 40 11.85 39.05 13.1 38.45 14.55 37.2 17.5 36.95 20.75 36.85 22.65 36.8 24.65 36.65 26.75 36.55 28.8 36.35 30.9 36.9 33.1 36.9 33.2 36.9 33.35 37.3 35.15 37.3 36.4 37.15 36.55 36.7 36.65 L 36.7 36.7 Q 36.55 36.7 36.4 36.8 34.9 37.1 34 37.15 L 33.9 37.15 Q 33.7 37.15 33.6 37.25 33.55 37.25 33.5 37.3 32.3 37.55 31.05 37.45 L 30.95 37.45 Q 28 37.4 25 37.7 24.95 37.7 24.9 37.7 22 38.2 19.1 38.1 L 19.05 38.1 Q 18.95 38.1 18.8 38.1 18.75 38.1 18.7 38.1 16.95 38.45 15.25 39.5 15.15 39.5 15.05 39.6 11.9 41.55 11 45.7 11 45.75 11 45.8 10.7 47.45 11 49.4 L 11 49.45 Q 11.25 50.45 11.85 51.3 12.1 51.65 12.45 52 12.75 52.35 13.25 52.45 L 13.3 52.45 Q 16.226171875 52.9458984375 19.25 53.3 21.9 53.8 24.45 54.35 27.55 54.95 30.45 55.95 32.85 56.75 34.9 58.1 34.95 58.3 35.05 58.55 L 35.05 58.6 Q 35.55 60.45 35.65 62.25 35.75 64.15 35.5 68.95 34.65 81.25 37.4 83.85 37.45 83.95 37.55 84 40 86.4 43.35 86.4 44.8 86.4 46.3 86.2 L 46.35 86.2 Q 46.45 86.15 46.6 86.1 46.6 86.05 46.65 86.05 49.35 85.3 51.4 83 53.85 80.2 54.25 76.3 L 54.25 76.2 Q 54.5 72.7 54.05 69.2 53.65 66.6 53.6 64 L 53.6 63.95 Q 53.5 61.95 53.8 60 53.85 59.45 54.15 59.15 54.4 58.8 54.75 58.55 L 54.8 58.45 Q 55.4 57.8 56.25 57.8 56.3 57.8 56.4 57.8 L 56.45 57.8 Q 59.2 57.5 61.95 57.45 L 62.05 57.45 Q 65.1 57.25 68.3 57 71.2 56.95 74.4 56.75 78.15 56.65 80.7 53.55 L 80.65 53.6 80.7 53.5 Q 81.6 52.45 81.9 51.1 Z"
         id="path2" />
    </g>
  </defs>
  <g
     transform="translate(3.4742647,1.9234848)"
     id="g9">
    <use
       xlink:href="#Layer0_0_FILL"
       id="use7"
       x="0"
       y="0"
       width="100%"
       height="100%" />
  </g>
</svg>
