<?xml version="1.0" encoding="UTF-8" standalone="no"?>
<svg
   xmlns:dc="http://purl.org/dc/elements/1.1/"
   xmlns:cc="http://creativecommons.org/ns#"
   xmlns:rdf="http://www.w3.org/1999/02/22-rdf-syntax-ns#"
   xmlns:svg="http://www.w3.org/2000/svg"
   xmlns="http://www.w3.org/2000/svg"
   xmlns:xlink="http://www.w3.org/1999/xlink"
   xmlns:sodipodi="http://sodipodi.sourceforge.net/DTD/sodipodi-0.dtd"
   xmlns:inkscape="http://www.inkscape.org/namespaces/inkscape"
   version="1.1"
   preserveAspectRatio="none"
   x="0px"
   y="0px"
   width="100px"
   height="100px"
   viewBox="0 0 100 100"
   id="svg11"
   sodipodi:docname="X_Ausrufe.svg"
   inkscape:version="0.92.1 r">
  <metadata
     id="metadata15">
    <rdf:RDF>
      <cc:Work
         rdf:about="">
        <dc:format>image/svg+xml</dc:format>
        <dc:type
           rdf:resource="http://purl.org/dc/dcmitype/StillImage" />
      </cc:Work>
    </rdf:RDF>
  </metadata>
  <sodipodi:namedview
     pagecolor="#ffffff"
     bordercolor="#666666"
     borderopacity="1"
     objecttolerance="10"
     gridtolerance="10"
     guidetolerance="10"
     inkscape:pageopacity="0"
     inkscape:pageshadow="2"
     inkscape:window-width="640"
     inkscape:window-height="480"
     id="namedview13"
     showgrid="false"
     inkscape:zoom="2.36"
     inkscape:cx="50"
     inkscape:cy="50"
     inkscape:window-x="0"
     inkscape:window-y="36"
     inkscape:window-maximized="0"
     inkscape:current-layer="svg11" />
  <defs
     id="defs5">
    <g
       id="Layer0_0_FILL">
      <path
         fill="#000000"
         stroke="none"
         d=" M 29.85 82.2 Q 27.3 83.45 25.2 85.55 22.75 87.7 22.4 90.95 22.2 91.9 22.5 92.75 24.1 97.8 28.05 100.85 32.05 103.75 37.15 103.05 40.15 102.8 42.8 101.25 43.9 100.65 44.6 99.45 48.3 93.9 46.2 87.8 45.15 84.3 42.55 82 40.55 80.95 38.55 80.45 37.6 79.95 36.35 80.15 33 80.85 29.85 82.2 M 46.3 14.6 Q 43.7 13.2 40.85 12.85 38.5 12.75 36.2 12.8 33.5 12.85 30.8 13.1 27.95 13.8 25.25 14.85 23.15 15.6 21.3 17 19.05 18.75 18.95 21.7 18.95 22.5 19.25 23.3 19.75 24.8 20.15 26.25 20.95 29.15 21.15 32.45 21.3 35.05 21.45 37.7 21.6 40.35 21.75 43 21.9 45.6 22.1 48.25 22.35 50.9 22.65 53.55 22.9 56.15 23.2 58.75 23.5 61.4 23.85 64.15 24.2 66.8 24.6 69.45 24.85 70.25 25.25 71 25.8 72.15 26.65 73.05 27.2 73.6 27.95 73.85 29.35 74.35 30.85 74.7 33.2 74.7 35.6 74.75 37.8 74.5 40 74 41.65 73.75 43.3 73.25 43.7 71.5 44.1 69.75 44.8 66.8 45.45 63.8 46.1 60.9 46.7 58 47.35 55 47.9 52 48.45 49.05 48.9 46.1 49.35 43.15 49.75 40.2 50.2 37.2 50.6 34.25 51.05 31.25 51.5 28.25 51.8 26.15 52 24.05 52.25 21 50.55 18.4 49.8 17.3 48.8 16.45 47.65 15.3 46.3 14.6 Z"
         id="path2" />
    </g>
  </defs>
  <g
     transform="translate(14.508974,-7.9847222)"
     id="g9">
    <use
       xlink:href="#Layer0_0_FILL"
       id="use7"
       x="0"
       y="0"
       width="100%"
       height="100%" />
  </g>
</svg>
