<?xml version="1.0" encoding="UTF-8" standalone="no"?>
<svg
   xmlns:dc="http://purl.org/dc/elements/1.1/"
   xmlns:cc="http://creativecommons.org/ns#"
   xmlns:rdf="http://www.w3.org/1999/02/22-rdf-syntax-ns#"
   xmlns:svg="http://www.w3.org/2000/svg"
   xmlns="http://www.w3.org/2000/svg"
   xmlns:xlink="http://www.w3.org/1999/xlink"
   xmlns:sodipodi="http://sodipodi.sourceforge.net/DTD/sodipodi-0.dtd"
   xmlns:inkscape="http://www.inkscape.org/namespaces/inkscape"
   version="1.1"
   preserveAspectRatio="none"
   x="0px"
   y="0px"
   width="100px"
   height="100px"
   viewBox="0 0 100 100"
   id="svg11"
   sodipodi:docname="Y_Eimer.svg"
   inkscape:version="0.92.1 r">
  <metadata
     id="metadata15">
    <rdf:RDF>
      <cc:Work
         rdf:about="">
        <dc:format>image/svg+xml</dc:format>
        <dc:type
           rdf:resource="http://purl.org/dc/dcmitype/StillImage" />
      </cc:Work>
    </rdf:RDF>
  </metadata>
  <sodipodi:namedview
     pagecolor="#ffffff"
     bordercolor="#666666"
     borderopacity="1"
     objecttolerance="10"
     gridtolerance="10"
     guidetolerance="10"
     inkscape:pageopacity="0"
     inkscape:pageshadow="2"
     inkscape:window-width="640"
     inkscape:window-height="480"
     id="namedview13"
     showgrid="false"
     inkscape:zoom="2.36"
     inkscape:cx="50"
     inkscape:cy="50"
     inkscape:window-x="0"
     inkscape:window-y="36"
     inkscape:window-maximized="0"
     inkscape:current-layer="svg11" />
  <defs
     id="defs5">
    <g
       id="Layer0_0_FILL">
      <path
         fill="#000000"
         stroke="none"
         d=" M 89.55 28.65 Q 89.2 28.35 88.85 28.25 L 88.8 28.2 Q 87.65 27.5 86.4 27.3 83.25 26.75 80.1 26.05 78.9 23.1 76.2 21.5 70.6 18.05 64.05 18.8 63.45 13.8 59.35 10.85 57.1 9.25 54.45 8.3 L 54.4 8.3 Q 48.15 6.15 42.4 9.2 L 42.35 9.2 Q 35.65 12.85 32.5 19.8 31.45 19.75 30.45 19.7 23.25 19.3 19.7 25.25 18.35 25.35 17.1 25.15 12.7 24.5 9.95 27.45 9.9 27.5 9.9 27.55 L 9.15 28.8 Q 9.05 28.95 9.05 29.1 9.35 33.25 12.2 36.2 12.35 36.35 12.55 36.35 L 21.15 36.7 Q 18.6 60.95 21.75 85.1 22.1 88 23.3 90.65 24 92.25 25.35 93.35 32.8 99.55 42.4 101.65 55.45 104.3 67.9 99.5 70.5 98.4 72.3 95.95 74.8 92.5 76.1 88.5 78.55 80.5 78.15 72.2 77.35 55.1 77.8 38.35 L 87.7 37.15 Q 87.85 37.15 88 37 88.15 36.85 88.3 36.7 88.35 36.7 88.35 36.65 89.3 35.4 89.7 34.05 90.3 31.45 89.7 28.9 89.65 28.7 89.55 28.65 M 49.2 17.4 L 49.25 17.4 Q 51.8 16.9 53.65 18.2 L 54.3 20.2 53.75 20.25 44.15 19.7 Q 46.25 17.7 49.2 17.4 M 68.1 38.1 Q 67.75 41.05 67.55 44.1 67.15 49.8 67.5 55.35 68.5 70.65 67.1 86.05 L 67.1 86.1 Q 67.05 86.6 66.75 86.9 63.1 90.8 57.9 92.4 47.2 95.45 36.7 91.7 35.35 91.15 34.55 89.95 L 34.5 89.9 Q 32.45 87 31.2 83.65 29.55 79.25 29.15 74.5 28.85 71.3 28.95 68.1 29.35 56.2 30.7 44.15 30.9 42.15 30.8 40.25 30.75 38.65 30.6 37.1 L 59.85 37.5 68.1 38.1 M 38.45 39.95 Q 36.55 42.1 36.45 42.55 33.8 60.15 34.7 79 34.9 84.2 38.5 87.1 39.4 87.8 39.45 86.95 40.2 77.35 39.7 66.65 39.35 59.5 40.4 49.6 41.45 39.7 38.45 39.95 M 60.2 41.1 Q 59.35 41.1 59.05 41.9 57.6 45.5 57.95 49.85 59.2 63.8 57.35 77.4 56.7 82 58.05 85.9 58.4 87.05 59 86.25 64.25 79.2 63.95 69.15 63.7 62.15 64.35 55.05 65.1 46.35 60.2 41.1 M 49.45 41.35 Q 48.05 43.7 47.95 44.35 45.55 59.8 45.25 76.3 45.15 82.3 47.1 86.55 49.05 90.8 50.6 86.55 52.15 82.3 51.5 71.65 50.8 61 52.15 50.25 53.45 39.5 49.45 41.35 Z"
         id="path2" />
    </g>
  </defs>
  <g
     transform="translate(0.475,-5.0018376)"
     id="g9">
    <use
       xlink:href="#Layer0_0_FILL"
       id="use7"
       x="0"
       y="0"
       width="100%"
       height="100%" />
  </g>
</svg>
