<?xml version="1.0" encoding="UTF-8" standalone="no"?>
<svg
   xmlns:dc="http://purl.org/dc/elements/1.1/"
   xmlns:cc="http://creativecommons.org/ns#"
   xmlns:rdf="http://www.w3.org/1999/02/22-rdf-syntax-ns#"
   xmlns:svg="http://www.w3.org/2000/svg"
   xmlns="http://www.w3.org/2000/svg"
   xmlns:xlink="http://www.w3.org/1999/xlink"
   xmlns:sodipodi="http://sodipodi.sourceforge.net/DTD/sodipodi-0.dtd"
   xmlns:inkscape="http://www.inkscape.org/namespaces/inkscape"
   version="1.1"
   preserveAspectRatio="none"
   x="0px"
   y="0px"
   width="100px"
   height="100px"
   viewBox="0 0 100 100"
   id="svg11"
   sodipodi:docname="Z_music_on.svg"
   inkscape:version="0.92.1 r">
  <metadata
     id="metadata15">
    <rdf:RDF>
      <cc:Work
         rdf:about="">
        <dc:format>image/svg+xml</dc:format>
        <dc:type
           rdf:resource="http://purl.org/dc/dcmitype/StillImage" />
      </cc:Work>
    </rdf:RDF>
  </metadata>
  <sodipodi:namedview
     pagecolor="#ffffff"
     bordercolor="#666666"
     borderopacity="1"
     objecttolerance="10"
     gridtolerance="10"
     guidetolerance="10"
     inkscape:pageopacity="0"
     inkscape:pageshadow="2"
     inkscape:window-width="640"
     inkscape:window-height="480"
     id="namedview13"
     showgrid="false"
     inkscape:zoom="2.36"
     inkscape:cx="50"
     inkscape:cy="50"
     inkscape:window-x="0"
     inkscape:window-y="36"
     inkscape:window-maximized="0"
     inkscape:current-layer="svg11" />
  <defs
     id="defs5">
    <g
       id="Layer0_0_FILL">
      <path
         fill="#000000"
         stroke="none"
         d=" M 70.35 38.05 Q 70.75 42.1 74.15 45.3 80.15 50.85 74.1 55.65 72.55 57 71.7 58.7 67.45 66.75 77.8 63.55 80.05 62.85 81.2 60.95 91.85 43 73.25 33.95 70.05 34.75 70.35 38.05 M 65.3 32.65 Q 65 24.3 57.55 21.35 55.75 22.4 54.4 23.35 54.35 23.3 54.2 23.25 42.95 30.7 35.35 41 32.7 40.7 28.35 42.3 25.95 43.05 23.35 43.6 22.15 43.9 22.05 44.6 21.3 51.95 21.8 60.1 21.95 61.5 23.1 62.05 30.4 65.3 37.8 64.35 38.35 65.15 39.3 66.05 43.45 69.8 48 73.3 51.2 75.75 54.85 77.25 58.4 79.45 62.35 81.4 63.7 82.1 63.85 81.15 63.9 80.25 64.05 79.3 64.65 79.05 64.45 78.25 64.35 77.8 64.25 77.4 66.3 55.4 65.3 32.65 M 95.95 75.8 Q 99.05 71.9 100.6 67.2 111.35 33.75 81.65 16.45 80.7 16.6 79.75 17.4 78.1 18.8 79.1 19.75 88.1 28.7 93.6 40.75 100.6 56.1 90 67.9 85.1 73.3 80.2 78.1 78.7 79.6 80.6 80.35 89.15 84.1 95.95 75.8 Z"
         id="path2" />
    </g>
  </defs>
  <g
     transform="translate(-12.528461,0.92651515)"
     id="g9">
    <use
       xlink:href="#Layer0_0_FILL"
       id="use7"
       x="0"
       y="0"
       width="100%"
       height="100%" />
  </g>
</svg>
