<?xml version="1.0" encoding="UTF-8" standalone="no"?>
<svg
   xmlns:dc="http://purl.org/dc/elements/1.1/"
   xmlns:cc="http://creativecommons.org/ns#"
   xmlns:rdf="http://www.w3.org/1999/02/22-rdf-syntax-ns#"
   xmlns:svg="http://www.w3.org/2000/svg"
   xmlns="http://www.w3.org/2000/svg"
   xmlns:xlink="http://www.w3.org/1999/xlink"
   xmlns:sodipodi="http://sodipodi.sourceforge.net/DTD/sodipodi-0.dtd"
   xmlns:inkscape="http://www.inkscape.org/namespaces/inkscape"
   version="1.1"
   preserveAspectRatio="none"
   x="0px"
   y="0px"
   width="100px"
   height="100px"
   viewBox="0 0 100 100"
   id="svg11"
   sodipodi:docname="a_music_off.svg"
   inkscape:version="0.92.1 r">
  <metadata
     id="metadata15">
    <rdf:RDF>
      <cc:Work
         rdf:about="">
        <dc:format>image/svg+xml</dc:format>
        <dc:type
           rdf:resource="http://purl.org/dc/dcmitype/StillImage" />
      </cc:Work>
    </rdf:RDF>
  </metadata>
  <sodipodi:namedview
     pagecolor="#ffffff"
     bordercolor="#666666"
     borderopacity="1"
     objecttolerance="10"
     gridtolerance="10"
     guidetolerance="10"
     inkscape:pageopacity="0"
     inkscape:pageshadow="2"
     inkscape:window-width="640"
     inkscape:window-height="480"
     id="namedview13"
     showgrid="false"
     inkscape:zoom="2.36"
     inkscape:cx="50"
     inkscape:cy="50"
     inkscape:window-x="0"
     inkscape:window-y="36"
     inkscape:window-maximized="0"
     inkscape:current-layer="svg11" />
  <defs
     id="defs5">
    <g
       id="Layer0_0_FILL">
      <path
         fill="#000000"
         stroke="none"
         d=" M 95.7 87.8 Q 91.5 82.55 87.05 77.45 86.7 77.05 86.35 76.65 86.65 76.3 86.95 75.95 90.05 72.05 91.6 67.35 102.35 33.9 72.65 16.6 71.7 16.75 70.75 17.55 69.1 18.95 70.1 19.9 79.1 28.85 84.6 40.9 91.6 56.25 81 68.05 80.35 68.75 79.75 69.45 76.7 66.35 73.6 63.35 72.7 62.5 71.85 61.65 72.05 61.4 72.2 61.1 82.85 43.15 64.25 34.1 61.05 34.9 61.35 38.2 61.75 42.25 65.15 45.45 70.85 50.75 65.65 55.35 61 50.55 56.65 45.6 56.6 39.2 56.3 32.8 56 24.45 48.55 21.5 46.75 22.55 45.4 23.5 45.35 23.45 45.2 23.4 43 24.85 41 26.4 33.5 17 23.6 10.7 23.25 10.7 22.8 10.9 17.8 13.1 21.25 17.15 24.85 21.35 28.45 25.5 31.35 28.85 34.25 32.15 29.9 36.35 26.35 41.15 23.7 40.85 19.35 42.45 16.95 43.2 14.35 43.75 13.15 44.05 13.05 44.75 12.3 52.1 12.8 60.25 12.95 61.65 14.1 62.2 21.4 65.45 28.8 64.5 29.35 65.3 30.3 66.2 34.45 69.95 39 73.45 42.2 75.9 45.85 77.4 49.4 79.6 53.35 81.55 54.7 82.25 54.85 81.3 54.9 80.4 55.05 79.45 55.65 79.2 55.45 78.4 55.35 77.95 55.25 77.55 56.25 67.05 56.5 56.4 59.05 59.05 61.55 61.75 60.95 64.65 64.25 64.6 69.2 69.95 74.05 75.4 72.65 76.85 71.2 78.25 69.7 79.75 71.6 80.5 75.65 82.3 79.35 81.35 83.55 86.15 87.7 91 91.6 95.55 95.5 91.45 97.2 89.7 95.7 87.8 Z"
         id="path2" />
    </g>
  </defs>
  <g
     transform="translate(-4.5015625,-2.0466763)"
     id="g9">
    <use
       xlink:href="#Layer0_0_FILL"
       id="use7"
       x="0"
       y="0"
       width="100%"
       height="100%" />
  </g>
</svg>
