<?xml version="1.0" encoding="UTF-8" standalone="no"?>
<svg
   xmlns:dc="http://purl.org/dc/elements/1.1/"
   xmlns:cc="http://creativecommons.org/ns#"
   xmlns:rdf="http://www.w3.org/1999/02/22-rdf-syntax-ns#"
   xmlns:svg="http://www.w3.org/2000/svg"
   xmlns="http://www.w3.org/2000/svg"
   xmlns:xlink="http://www.w3.org/1999/xlink"
   xmlns:sodipodi="http://sodipodi.sourceforge.net/DTD/sodipodi-0.dtd"
   xmlns:inkscape="http://www.inkscape.org/namespaces/inkscape"
   version="1.1"
   preserveAspectRatio="none"
   x="0px"
   y="0px"
   width="100px"
   height="100px"
   viewBox="0 0 100 100"
   id="svg11"
   sodipodi:docname="b_geschenk.svg"
   inkscape:version="0.92.1 r">
  <metadata
     id="metadata15">
    <rdf:RDF>
      <cc:Work
         rdf:about="">
        <dc:format>image/svg+xml</dc:format>
        <dc:type
           rdf:resource="http://purl.org/dc/dcmitype/StillImage" />
      </cc:Work>
    </rdf:RDF>
  </metadata>
  <sodipodi:namedview
     pagecolor="#ffffff"
     bordercolor="#666666"
     borderopacity="1"
     objecttolerance="10"
     gridtolerance="10"
     guidetolerance="10"
     inkscape:pageopacity="0"
     inkscape:pageshadow="2"
     inkscape:window-width="640"
     inkscape:window-height="480"
     id="namedview13"
     showgrid="false"
     inkscape:zoom="2.36"
     inkscape:cx="50"
     inkscape:cy="50"
     inkscape:window-x="0"
     inkscape:window-y="36"
     inkscape:window-maximized="0"
     inkscape:current-layer="svg11" />
  <defs
     id="defs5">
    <g
       id="Layer0_0_FILL">
      <path
         fill="#000000"
         stroke="none"
         d=" M 70.65 73.6 Q 68.9 73.55 67.3 73.55 65.15 73.7 63.1 73.85 61.25 73.9 59.75 73.95 58.35 74 57.7 73.95 57.1 73.9 54.75 74.35 52.4 74.85 50.65 75.75 50.2 75.95 50 76.3 49.7 76.65 49.65 77.1 49.45 78.9 49.2 80.7 49 82.45 48.75 84.2 48.6 85.2 48.6 86.2 48.6 87.05 49.05 88.5 49.45 90 52.9 91.5 54.1 91.65 55.35 91.5 57 91.3 58.65 91.15 60.3 90.9 62 90.7 63.65 90.55 65.3 90.35 66.9 90.15 68.55 89.9 70.15 89.65 71.8 89.5 73.35 89.2 75 89 76.5 88.95 77.4 87.8 77.65 87.45 78 87 78.5 86.35 78.75 85.55 79.15 84.4 79.2 83.2 79.2 82.4 79.15 81.55 79.1 80.35 78.95 79.25 78.85 77.95 78.5 76.75 78.3 76.25 77.95 75.95 74.6 74.05 70.65 73.6 M 33.5 73.2 Q 31.25 73.1 31.05 73.1 30.7 73.05 29.1 73.05 27.4 73.05 25.7 72.85 23.95 72.8 22.2 72.8 20.4 72.75 18.65 72.85 16.85 72.85 15.6 73.85 14.15 75 14.05 76.75 14 78.45 14.05 80.2 14.1 81.25 14.3 82.3 14.4 83.35 14.65 84.4 15 86.15 15.9 87.6 16.9 89.3 19 89.7 20.05 90.05 21.25 90.3 22.35 90.65 23.55 90.85 27.05 91.15 30.6 91.15 36.5 91.2 38.95 90.8 41.4 90.3 42.35 89.85 43.2 89.4 43.3 89.1 43.35 88.75 43.4 88.4 43.55 86.05 43.4 83.4 43.3 81.75 43.05 80.1 43.2 77.9 42.4 75.6 41.95 74.45 40.6 74.15 35.65 73.25 33.5 73.2 M 16.4 40.1 Q 13.35 40.25 11.7 42.5 9.9 45.1 9.75 48.35 9.4 57.45 12.2 66.1 12.25 66.25 12.35 66.35 14.4 69 17.9 69.25 26.75 69.6 35.65 69.75 38 69.95 40.05 69.05 42.55 67.95 43.1 65.25 43.45 63.5 43.65 53.7 43.8 43.9 41.5 42 34.2 38.5 25.95 39.05 21.15 39.3 16.4 40.1 M 80.75 20.8 Q 80.35 18.2 77.6 13.95 74.85 9.65 67.75 10.75 53.45 15.45 43.4 26.85 42.05 23 39.3 20 33.25 13.4 24 13.75 21.9 14 19.85 15.1 16.75 17.05 17 20.85 17.1 22.6 17.8 24.15 21.35 31.85 24.65 33.75 24.75 33.8 24.8 33.9 33.25 37.35 36 37.75 47.7 40.05 59.2 37.35 68.3 35.1 76.8 31.25 78.9 30.25 79.8 28.1 81.25 24.6 80.75 20.8 M 75.3 20.45 Q 75.45 21.95 74.2 23.35 71.5 26.25 65.8 28.35 60.5 30.35 54.45 31.15 51.45 31.35 49.45 31.25 51.3 28.9 53.25 26.75 59.3 20.05 68.2 17.45 71.75 16.5 73.45 17.7 75.1 18.9 75.3 20.45 M 23.65 20.55 Q 23.65 18.85 27.1 20.8 35.7 23.95 37.55 33.1 34.55 32.85 31.9 31.5 25.15 28.05 23.65 20.55 M 81.05 63.5 Q 81.15 59.25 81.3 55.15 81.4 52.05 80.75 48.85 80.3 46.75 79.1 45.1 76.1 41.1 70.95 40.65 68.75 40.3 72.25 40.75 64.75 39.55 55.7 40.85 53.05 41.4 50.8 42.55 49.25 43.35 48.95 45.3 47.35 56.85 49 68.5 L 49.8 68.9 Q 51.5 69.1 53.25 69.4 60.15 70.2 67.25 70.1 72.55 70 77.65 69 79.05 68.85 79.8 67.6 81 65.7 81.05 63.5 Z"
         id="path2" />
    </g>
  </defs>
  <g
     transform="translate(4.4877778,-1.050463)"
     id="g9">
    <use
       xlink:href="#Layer0_0_FILL"
       id="use7"
       x="0"
       y="0"
       width="100%"
       height="100%" />
  </g>
</svg>
