<?xml version="1.0" encoding="UTF-8" standalone="no"?>
<svg
   xmlns:dc="http://purl.org/dc/elements/1.1/"
   xmlns:cc="http://creativecommons.org/ns#"
   xmlns:rdf="http://www.w3.org/1999/02/22-rdf-syntax-ns#"
   xmlns:svg="http://www.w3.org/2000/svg"
   xmlns="http://www.w3.org/2000/svg"
   xmlns:xlink="http://www.w3.org/1999/xlink"
   xmlns:sodipodi="http://sodipodi.sourceforge.net/DTD/sodipodi-0.dtd"
   xmlns:inkscape="http://www.inkscape.org/namespaces/inkscape"
   version="1.1"
   preserveAspectRatio="none"
   x="0px"
   y="0px"
   width="100px"
   height="100px"
   viewBox="0 0 100 100"
   id="svg11"
   sodipodi:docname="T_pfund.svg"
   inkscape:version="0.92.1 r">
  <metadata
     id="metadata15">
    <rdf:RDF>
      <cc:Work
         rdf:about="">
        <dc:format>image/svg+xml</dc:format>
        <dc:type
           rdf:resource="http://purl.org/dc/dcmitype/StillImage" />
      </cc:Work>
    </rdf:RDF>
  </metadata>
  <sodipodi:namedview
     pagecolor="#ffffff"
     bordercolor="#666666"
     borderopacity="1"
     objecttolerance="10"
     gridtolerance="10"
     guidetolerance="10"
     inkscape:pageopacity="0"
     inkscape:pageshadow="2"
     inkscape:window-width="640"
     inkscape:window-height="480"
     id="namedview13"
     showgrid="false"
     inkscape:zoom="2.36"
     inkscape:cx="50"
     inkscape:cy="50"
     inkscape:window-x="0"
     inkscape:window-y="36"
     inkscape:window-maximized="0"
     inkscape:current-layer="svg11" />
  <defs
     id="defs5">
    <g
       id="Layer0_0_FILL">
      <path
         fill="#000000"
         stroke="none"
         d=" M 71.2 21.7 Q 71.25 19.05 69.6 17.15 59.55 5.35 43.45 6.25 32.1 8.15 27.55 18.65 24.25 26.45 24.6 33.8 20.65 34.75 19.4 38.95 18.95 40.6 20.55 41.2 23.3 42.15 26.3 42.55 27.2 45.05 28.55 47.5 25.7 47.65 22.9 47.15 16.6 46.1 14.25 50.85 13.15 53.05 15.35 54 21.35 56.9 28.4 55.95 31.2 55.6 34 55.25 38.55 61.95 33.7 68 32.5 69.5 30.75 70.15 21.05 73.45 13.4 79.95 12.1 81.05 12 82.65 11.45 89.75 19.55 87.35 23.3 86.2 26.2 83.65 32.75 77.8 40.7 80.1 48.35 82.35 56.05 84.2 68.6 87.2 72.85 76 73.45 74.25 72.4 73 67.8 67.3 65.15 74.2 64.85 74.95 64.25 75 52.65 75.85 41.05 71.95 44.85 67.6 44.2 61.9 43.7 57.75 41.6 54.3 51.15 53.2 60.8 52.3 64.3 51.95 63.4 48.65 61.85 43.15 54.95 45.25 45.7 45.95 36.35 46.8 35.2 44.7 34.4 42.55 34.6 42.55 34.8 42.5 39.7 41.85 44.65 42.1 49.35 42.3 52.95 39.95 54.8 38.8 53.85 36.85 51.15 31.6 44.05 33.4 39.1 34 33.9 34 33.35 34 32.75 34 32.65 29.4 34.05 24.65 37.35 13.55 48.75 14.6 53.25 14.95 57.55 16.3 64.55 18.45 62.2 24.4 59.75 30.75 64.2 34.5 65.15 35.35 66 34.55 71.2 29.7 71.2 21.7 Z"
         id="path2" />
    </g>
  </defs>
  <g
     transform="translate(7.4833946,2.9287319)"
     id="g9">
    <use
       xlink:href="#Layer0_0_FILL"
       id="use7"
       x="0"
       y="0"
       width="100%"
       height="100%" />
  </g>
</svg>
